<mxfile host="app.diagrams.net" modified="2021-09-29T07:09:29.287Z" agent="5.0 (Windows NT 10.0; Win64; x64) AppleWebKit/537.36 (KHTML, like Gecko) Chrome/93.0.4577.82 Safari/537.36" etag="bY6BL3Szgo5XljpvS4o0" version="15.3.1" type="github" pages="3">
  <diagram id="GBzYHnymtZLY8yJRd3-s" name="Page-1">
    <mxGraphModel dx="1422" dy="794" grid="1" gridSize="10" guides="1" tooltips="1" connect="1" arrows="1" fold="1" page="1" pageScale="1" pageWidth="1169" pageHeight="827" math="0" shadow="0">
      <root>
        <mxCell id="0" />
        <mxCell id="1" parent="0" />
        <mxCell id="rrsJVix6qKpGxg5yvODt-4" value="Cluster" style="swimlane;shadow=0;labelBackgroundColor=none;strokeWidth=1;fillColor=#9AC7BF;swimlaneLine=0;strokeColor=#36393d;swimlaneFillColor=#E5FAE4;" parent="1" vertex="1">
          <mxGeometry x="550" y="110" width="150" height="320" as="geometry" />
        </mxCell>
        <mxCell id="rrsJVix6qKpGxg5yvODt-6" value="Server 1" style="text;html=1;align=center;verticalAlign=middle;resizable=0;points=[];autosize=1;strokeColor=none;fillColor=none;fontColor=#000000;" parent="rrsJVix6qKpGxg5yvODt-4" vertex="1">
          <mxGeometry x="44.99999999999999" y="39.25" width="60" height="20" as="geometry" />
        </mxCell>
        <mxCell id="rrsJVix6qKpGxg5yvODt-7" value="Server 2" style="text;html=1;align=center;verticalAlign=middle;resizable=0;points=[];autosize=1;strokeColor=none;fillColor=none;fontColor=#000000;" parent="rrsJVix6qKpGxg5yvODt-4" vertex="1">
          <mxGeometry x="44.99999999999999" y="160" width="60" height="20" as="geometry" />
        </mxCell>
        <mxCell id="suY-vxM38ZiqBG82jehO-3" value="" style="rounded=1;arcSize=5;fillColor=#0065FF;strokeColor=none;fontColor=#ffffff;align=center;verticalAlign=middle;whiteSpace=wrap;fontSize=14;fontStyle=1;html=1;sketch=0;" parent="1" vertex="1">
          <mxGeometry x="418" y="230" width="81" height="79.5" as="geometry" />
        </mxCell>
        <mxCell id="suY-vxM38ZiqBG82jehO-22" style="edgeStyle=orthogonalEdgeStyle;rounded=0;orthogonalLoop=1;jettySize=auto;html=1;entryX=0;entryY=0.5;entryDx=0;entryDy=0;fontColor=#000000;" parent="1" source="suY-vxM38ZiqBG82jehO-1" target="suY-vxM38ZiqBG82jehO-3" edge="1">
          <mxGeometry relative="1" as="geometry" />
        </mxCell>
        <mxCell id="suY-vxM38ZiqBG82jehO-1" value="" style="points=[[0.13,0.02,0],[0.5,0,0],[0.87,0.02,0],[0.885,0.4,0],[0.985,0.985,0],[0.5,1,0],[0.015,0.985,0],[0.115,0.4,0]];verticalLabelPosition=bottom;sketch=0;html=1;verticalAlign=top;aspect=fixed;align=center;pointerEvents=1;shape=mxgraph.cisco19.laptop;fillColor=#005073;strokeColor=none;" parent="1" vertex="1">
          <mxGeometry x="300" y="252.25" width="50" height="35" as="geometry" />
        </mxCell>
        <mxCell id="suY-vxM38ZiqBG82jehO-2" value="" style="shape=image;html=1;verticalAlign=top;verticalLabelPosition=bottom;labelBackgroundColor=#ffffff;imageAspect=0;aspect=fixed;image=https://cdn4.iconfinder.com/data/icons/logos-brands-5/24/nginx-128.png;fontColor=#000000;imageBackground=none;" parent="1" vertex="1">
          <mxGeometry x="439.5" y="251" width="38" height="38" as="geometry" />
        </mxCell>
        <mxCell id="suY-vxM38ZiqBG82jehO-20" style="edgeStyle=orthogonalEdgeStyle;rounded=0;orthogonalLoop=1;jettySize=auto;html=1;entryX=0;entryY=0.5;entryDx=0;entryDy=0;fontColor=#000000;" parent="1" source="suY-vxM38ZiqBG82jehO-3" target="suY-vxM38ZiqBG82jehO-5" edge="1">
          <mxGeometry relative="1" as="geometry" />
        </mxCell>
        <mxCell id="suY-vxM38ZiqBG82jehO-21" style="edgeStyle=orthogonalEdgeStyle;rounded=0;orthogonalLoop=1;jettySize=auto;html=1;entryX=0;entryY=0.5;entryDx=0;entryDy=0;fontColor=#000000;" parent="1" source="suY-vxM38ZiqBG82jehO-3" target="suY-vxM38ZiqBG82jehO-4" edge="1">
          <mxGeometry relative="1" as="geometry" />
        </mxCell>
        <mxCell id="suY-vxM38ZiqBG82jehO-17" style="edgeStyle=orthogonalEdgeStyle;rounded=0;orthogonalLoop=1;jettySize=auto;html=1;entryX=0;entryY=0.5;entryDx=0;entryDy=0;fontColor=#000000;" parent="1" source="suY-vxM38ZiqBG82jehO-4" target="suY-vxM38ZiqBG82jehO-10" edge="1">
          <mxGeometry relative="1" as="geometry" />
        </mxCell>
        <mxCell id="suY-vxM38ZiqBG82jehO-4" value="" style="rounded=1;arcSize=5;fillColor=#0065FF;strokeColor=none;fontColor=#ffffff;align=center;verticalAlign=middle;whiteSpace=wrap;fontSize=14;fontStyle=1;html=1;sketch=0;" parent="1" vertex="1">
          <mxGeometry x="580" y="290" width="81.01" height="80" as="geometry" />
        </mxCell>
        <mxCell id="suY-vxM38ZiqBG82jehO-16" style="edgeStyle=orthogonalEdgeStyle;rounded=0;orthogonalLoop=1;jettySize=auto;html=1;entryX=0;entryY=0.5;entryDx=0;entryDy=0;fontColor=#000000;" parent="1" source="suY-vxM38ZiqBG82jehO-5" target="suY-vxM38ZiqBG82jehO-10" edge="1">
          <mxGeometry relative="1" as="geometry" />
        </mxCell>
        <mxCell id="suY-vxM38ZiqBG82jehO-18" style="edgeStyle=orthogonalEdgeStyle;rounded=0;orthogonalLoop=1;jettySize=auto;html=1;entryX=0;entryY=0.5;entryDx=0;entryDy=0;fontColor=#000000;" parent="1" source="suY-vxM38ZiqBG82jehO-5" target="suY-vxM38ZiqBG82jehO-9" edge="1">
          <mxGeometry relative="1" as="geometry" />
        </mxCell>
        <mxCell id="suY-vxM38ZiqBG82jehO-19" style="edgeStyle=orthogonalEdgeStyle;rounded=0;orthogonalLoop=1;jettySize=auto;html=1;entryX=0;entryY=0.5;entryDx=0;entryDy=0;fontColor=#000000;" parent="1" source="suY-vxM38ZiqBG82jehO-5" target="suY-vxM38ZiqBG82jehO-8" edge="1">
          <mxGeometry relative="1" as="geometry" />
        </mxCell>
        <mxCell id="suY-vxM38ZiqBG82jehO-5" value="" style="rounded=1;arcSize=5;fillColor=#0065FF;strokeColor=none;fontColor=#ffffff;align=center;verticalAlign=middle;whiteSpace=wrap;fontSize=14;fontStyle=1;html=1;sketch=0;" parent="1" vertex="1">
          <mxGeometry x="581.01" y="170.5" width="80" height="80" as="geometry" />
        </mxCell>
        <mxCell id="suY-vxM38ZiqBG82jehO-6" value="" style="shape=image;verticalLabelPosition=bottom;labelBackgroundColor=#ffffff;verticalAlign=top;aspect=fixed;imageAspect=0;image=data:image/png,iVBORw0KGgoAAAANSUhEUgAAAOYAAADbCAMAAABOUB36AAAAclBMVEX///8hfrYAdLEAdrIAc7EbfLUSerQAd7L7/f72+vzU5O/A1ufm7/ba5/HO4OyFsdG+1ebx9vpZmMQwhbq30ON3qc3h7PQ+i72RuNbJ3OqhwtuHstJVlsM1h7utyuBLkcCkxNxooMhto8p7q86YvNgAa63hDeAuAAAZEUlEQVR4nNVdCbeqKhROENCywaHMBrXs/v+/+BwqNggI1jn3vm+99dZdJ0s2bDZ7ZrH4YQTxutiVp+N52+xv1X3fbM+POiuWUfjTb/4lRJt6e7lShDFjtAVpQUn3L4Yx8lma347lMv7bw/wA0e6YMIQYJR7xtGipbsklt9Pmf0hrlO2vCLeLp6dPIpYhnG93/yNSg+KctmtoSSCktV3X63H5t8dvgzC7MTSDRE4q8vbF36bCjDBLECa2jGqglDb/7pou9wx/sI4Spekj+tsEKRDWV2QtcKzAULL621RJiLYUf5XGHhSn9T+kP6xv2H4hW2nqwNqYHf8RQpcX334hcXpcLXd7e1lMGD7+A4fp8qIfcqvTMfEPuB6+Fd+Q9IGeHQj76yt6uGmJpO3xmTxKSCdJD+9vlpAFyHV3rrBehDH8CP4ekcEWaQZGMb6c1u0jNzALJIeLsoLrycpOeTrmSCPICCbZ36Iyk1jyNaRWj2lWA0UZoIV4IutlPiRj2H9ReWNqSgmqDqMR/AIOlXIpKSJbrsFAxsTyMB9gDuj+9ddgd8dKSine/j7nnn3Fpmx17zvURx+Yf+aPz/oE/IQPJiHILqpf9xjZ/TxhEJtUwa+tuBRlfwhkCl8u8DlQf0kifHRokGpHoNtvytyz4qSkfi5LiSMcqYrhoBjyJWU9fHgK3qXs1xY0yscTTfxkZFOEkAi1egoEsbScHbLrmFCCFGzxEygV7/ZvCsMJLKaChh4x3LyKn1jl45fR9DdE7h7J7yUoWSseDMDORLqRwam4qR7YpYr3ld8jR41oLHtwpTaBa75SKvkzIABSyFcbmJmH5Vf6P8y4xYiHmKeTCSkYll75PoHJOKsfCR4jiceqn1TnR++jSDO0dluB8Tf6nwSsTaju+I8TmXMJVe2T72AvcY9RAQNn/0j/gXjwXYD1euvKk/UF/EMnS1DJVL7MKhUiPv9q2fICELYkNzwniz7in+bRYUZ4leYTVSafFFgkf2P84Yb/rm/ixIJIA/C1G2Y+IilAQJB5MrkAMq5RizVfJp0QGhDcJWMBG9lkDg6S95WmZhGw4WPHU6dcDn7a/KSsmWCN1jEXa+n30dQ8ck4kdErbzvjuxBP+9kjaOeziQsUU1qLwIX499Q2++HrV4IXAfx8qpqNneFZyItEv0nmQqKRmmdKi4INB02GCeIvZQCjBkw9LZ/f31jMSXVE0nfb6A+k5sd0GxMenbwRNR4lW4nqyL+3P2JOmz8JVAXj2YfeW4ESYDdcuOnEobNDvyNswdf/RDedyrW0yQlD2drTFk7E0JIupmUQu/uTW5jtnLmcnDk0RWYqMGsILoTQoS44x4CYYXuho9SWuG9jy7Aurq9U8BpVAp/+pE/eMZ1AJ9Fk0Wpw4OydVXt2OmVqSWcZvL+J6fhb1hS7jdsyWS1O+54YQ+Qcrnz2zZhjyth+MTqSTfGJ/rgXZje3WsmV0LmdFFlxLrh2KRt5Aewh86yYDRATCmOykz0KwlJHg0NuN/Z4EXefmUwRQF/5E3EKvuMfutl9bch5gUJ8tlHFQMtvFHAoHuj/XDwZjHC7KIzc1KdRQ4p5hCR5FqymdmWMQCdNmf0ILWELxQ6/2YRouHBi0Sbe024z3stiszqkQyyRoP29B13CI87ZnIM64vSQLgAoEj5OWMHR8TdZ6K6SBzY0Z7CDDWQsPiD0chsojrgPYmtDeaHmWwF+Jt0K8WnRp8yM1MNsJR0jnhDdGhQLyg5Ob+/TemoKvK8BUGnF7vMAF9ZPixboF57+po/omHCuuvC+wrL2Q7V/8XiRWw79X45NDWNAukl/dj4/H/YrS1xPKsIUw0BT8BHUa6EJkWXJ1+ipXaEWLWsV9KyoK3T6fuB33M0Z/8OrJ1x0EtnU7hDcCyzpJ6uj9VcKmpXOcqEP7nTQ5NH9szvwS0plOPw8AOcEx/sSDCsTqqC2pKv5O2cVDvp3ohNuTufhugS9ZPOItcHy/lNrpwK3IVaUxEDrtWBsQCmeCfd5mDNNcXKUX1xCtoxzRXpE7wjzrYBA8FRy0NcgFzhYr0NsdJrbOfQYVI+q7ZMdAgWnhNBuwgfk6rv4kblIT+vxTUGwEFEqRdjglBPVVHAyj9OiUMwyDwdZSqAJpLMzVXOUS6L2pwz9IgFayBFFRPs7Hcuccu4RK32Qw4zlQ+BXn4BowT14SKJRCduaA0DwkcG9bsfsVLKabYtCB60BvCfQbZEauawPXH7nrwtykf2sVv0GmkJIyHaEQFtNZ/rQkcW38rQOFf7Dd3vwEUAqxadfcCiYkuZdIcCcZqd4j2CxF/EjlRQmC+2RydwI/Ep0x6zsuaF2thU8B2JBNCdsCbuUZvk8uaNmPZEAYsIPW68SzyWeLCSJ+WPBjheUTP1j+BZYTmfXMCGiHhtQsPaqxoO0R+riHMfujTl64zPFSg4xzLhiU2HLlcNZiLhh3HYgq/1NhFR0Ko3HSJ9ispDy4nCZFSkianCMPuW1DpO1xVbGyBK5M25mqMjK7/DnhuVmCUnWeDHjaZ0aFA2bXznk7CJJ7yHCmAKV9hgK0EBR3ie2etpLR4QJy3/1ZRQpAFTKcKTDPbl6EqeaKe6uJBGEcrZ+b5BnARu8dG+/Px8epLrNsVywPcdx9oNAUnQDz//RC6GSVDGkCj8Z7eZ56reXoX4Tf5l6wyO9EDcO4/a9VBhlJrxV3CuJZzAQMB4MQ4pLKQl2SEEab7LGHrrKhDcBLL84GMrnNGwkR4u5xGOAieXPaLWPXUSwt8v8Az7qcJofVqUmu1FfX/7/ILLDESjKZEkjf/sHLb+d64yDzQUq2TooBnjUeO2/ERb2/IoQZpdoGDi8yBxkMwg0TZD6J7YP3CFfbcm3leoM0aOI+XM5Om9Nx8bilQ4cKM15kxj1V4DizIvM9IIoRy/flcorWaJJrwXvNBtuh3BOM2RSBIplDOBDkzziR+aS1Xdjr2dzpApyJat8XMNh8rTg/lDfPd6ik5qZ5v2vAaeZO5pNWjPJGT2oNTgslFclUala4aih27d7wJrM/E4GHeiaZT1Lx9agWHzHgyVrxeQASIxQ8G5cJc1nFEZn9LALd6gMyB1KR16isOs61yrBIoYml9zTW1axeKt1oXu+6d98HfBT9YU9zhBgb7RhAEbuv5KMVxH9Uei0P8UipWWF50ZU8G8AYalUgRNKXbtsrSMAhEZ5Oj+O22d9vlzwlyPefjZOIy65o2ZfdxTUFKVsqvRwsNjRilntbmerBihha74q10MKqkw36uqFFEK2L7HRskrxdJNQSbEtux70PKJGMeZEhUO7f+myQ5crq39GbugZO+JrwFyiKMdnYCFUjjJZZvb3lXrfA1IZahu584XjcSGG1gkzfl3ckfEw2Guk7VGEvOZe9RvbeY4rQZrf3He2ecN3qkRXp8qUmtRCUv4R4BhIjR9oE37nPscTnCW5tKfRp1ZSgB9d7WygMnK4uYIZ/e9F1PSubiqGJhSUoHV4K01xH+t5N3Jrh2dgfpV1DWh130vnLowiKepJoNpkD1tm5osZ1JXgglM/GODjGZXq3EjVTdm54kuin+3KtECZ8HhVpvP3m/7SO9pA1ua9fAILzdo/e1cK0A4jDo2iZ6vZkl+u7L3WqIK9XURn/3TrQGYlYMuJdk2p78RB0D3gflJELAXrbt+rGOKRvNGJyXnCjVuXjvXYSHrOvBFCiXidTrwQFXlgkfa+GuSNKGhHbrybMIO7w8hVPXmirXu1Z+qUGDeFqr1awYZWKzFVb4/FIELFpCpe950rlmGvPM3SIEM2/11lkdWPm00B2C18MTzP/NtIcleCmnMwsHVptEsWLhn6zeq3VRHPfIHzleFWqe5Ci9GQbTOGcr4oXn1j355CRb1V1PXE4E60WI4naEGse8xOHEBZ3xDDFpx1LL/oOAOzLVbRBVml0UknURkj1EEV3J6/w28h5pwRBFHh46ZV8vYq2VR7uasErOko2CjKpf3cU/o2RzDUelKAuu9NqPYOsSZJ9bbllDjfFOSiZRLux0oMuzv59bhuomDb2n3GV7jFmDkC2CM6d47e1fazT2g63cdKqGHGvZTLpnEZLdx6qVo0bP+2WsH9Bbj4/1x6XZ1fbo7YYdUwRD86jxNjoNudwA6lPqo/ffr1e5SLEtCWWkAOpvf12lnsGCBJU0g5mVugkxtVc5G/zrOduU4l2LK6Kg8ZfiPqCmOx6h5/NbmtyMa9m8vbNDHn4RD+bYjmfRxxyu8U+FKIpJmT2yYUU1gD5FaqP79zL/axY0vWnOcjOTZd0jwhyglQ8ATlkdlHlBJlnMNjTcIKxi3L8sqjwsAt/LYGuI3prQG6XqW3MBDiZvurjGgGJ+dzHlKg2aC4fDHYRuhdAMFmMF4EA7gf1noBMlaDO4GkavLaQr/AyjpQVlWGnR6gL1HLNnX1QjQ1SB1TDKgRB8nYb41HDqqWsYbvO/U3jJgG74APrnpOpFBlrUfN5120T2TM1Uj1dXUggRVtIaAFkflCLPUFmJKUabV+LRvBFmNyDRKZzknamyQMFE/dBKzBApoonYvn44IUgRCzCl6h0zp7JNOlJYG9+0BEC7E0l69ejL4C2ZinwZwh9CJjnfMJxN4a4N0FS37w0sh669MsXRvl6IUywwTnXP09DnLELzuDG3UfG7XtR0oKDis3PRAdkKll/vGEjocjUr94TEZ2SNE2vyTmbIyuACBI2iqAFzT5SOJnWzTPE7lkEXctv+Dd15XiCTuvPbdQHVtPauV6IlhNhSBlqdwNXg0TX3l1QIudGOi4zyFysRg0nsbfXtGWxBbcrxSNZtjfndQwF9qbDiqxGro0uAYgk23JVLA9RHK2XxWqXlXV/o1Ozb86PU7baRAbDH2TcC5wpmwQsn5PoCbwHLn0pClVOCenvbMII+V2FTpenyV4pGcNtTsirjrpoB3dKiWWOJ9mHQvyzu5vkrpnEKSytsxuEIXZx5OqkYm9AprBcu7E7mrn3xQeePbfvHmbfpEKUt6YAthJmYaPyuuPUUeQ2mp0/jThXe81tQJF3kpg34Q5jgSdlZfkJdHVaFb7DjXUYSowa7boAS6kxp/duF51IY0P2ORuYWAeKhBiKu2Z8dLhVRTFOKvDPi045ccfwA2xvewiehIR+V+x013HYEYpyqHnVA51y8kGlf0Ur0Lyj1fkCDIM5lagHZZzcnlC/ARsx65lDjm825jdQVJXTikmm0ZhtEVb6/BVATldK36M7SeEnzAN812sd8vkNgyjKU4xgdH1MmNwrjZlnj0QTZ+XAOG/qYh21utEmO21vKUaMZyBAx2/nUZLNe5Bm6mXKLiHdGeWnhrxkmElC5tao3o3rSXA6igPGm/JO/FeyBc45YWtG5MgczACLgkZ/AxFG+bHQkMrzglwbmXDcDHQSbenrobyRIY5LgB15oKPwIqhIbJ87GC7N6nSsvNkptmqkLYRzgF4YmhvjBpuz1zdCQ6A6YiQiuHUx+BWK3CTfu1QoLzmuxPfy0/cDp7ZGU+nCf5Na9mbbUcpy/cYCydHPIe6MhA6OGt9Lztn6/at8hG7tiQTcdZLBSk/ZNBQzonVeFON82kVRTd/e1llFjFTNadVS+xZ5yuQDS6zVy2lv9OwS9EenpIKaQPCD68YqBZwMFV3gSeeWLQAX1dw67fboQXSOO+7cEw69sKywzaHdDwXM/QdejpVqOV1tno1mPaGfRPzk8LjaZLwL+MR5r1SwZ5V6K7Az1KEslmfPvoChn/xP3HMjX4anCQzPAEgcVp7C64cpL1nGJ/FDoZfYC8rAsApTGimoa9Rs96hMsEUtY0/mR9net/ErbGvKoz+t7m1icMAqhtYyy67lFpssDrFsPqfBaqzB22YfPFh7mvm50hPWAzR7NbdNCZb1baqA88P+MmOOsfVHDAcGYajSJfvZ39Sy6MpxT6Zy3HltKN44j4SAZSiXWw9E51MHPmnLwGm8qZuqtXExHZXCuHcBg1BoQnb98wANOmEPbj1xsv6jTXlOrrRzjQMmc/Zmh/Fh3ffhWx7iMB/zh9XE8dnW65vgN92DuWG8XJV8dMhF21uebnlKW654dftSORFsApJAM9c7MOyu9DKB7ymH6wHqwc8xJbxtunHCLhbaAYA64I97ktgHixTJvmpMS2/YVMXA48A2mJe5xw8861Zet0kvFx/TlC0GBLTJ7//FfkG27T4eDkEFMtF2PQBHuTH9DXZ/mmMxcm3UsqhGXTKhpdP8o7XtKsHcxVkZJe95spTVNzcLz3wVHagZMmcFfLEzm1VWnHPzA5PIgH0TJw5ZIJFnBQhAiNNG14ZNqrsGQxbWj37PgYemfA3gfHVvwbsQYn82Jy9wylJE0yqpUjphE2i3p9AEc+rF+WfLCcIoFiYFF40UN5thncL16eIbKGU67QYu5uRpBrMQZuxO0Lzeoj7q/TTaCrwY14obq9+jUjMkuNjd0EXiDdif1v3sBA0JLVTtV36wQl0tKq1ypKzPjsG8MAubHnSSnKMKAVE7rYI+K7rVPFZoV1RVQQJ7nltlxsPe0e6a7d1FeX+tpubjWtPVhnij3QQNVLsLCaA32D17Dyjv098dLFy9yRTvNUX7o+I42KR98l5TxVdcpRDvLGARsR5aNZm8gJvxref9b0vRsRp2D67tRgp68rlLIR6LsTD3h77W5mWXa/ie4xJ8rLBHqH0wDobefNfLr4iLDKqmyVwslQsq0AnTgZH1gEWvt6NTh6uLFkm1feBmMiVsq9J8gTq0+qNbZjOE+1Ac2dapSXavNE27YEc3cw8EvReg5vNgdX/nC7CiwPGqEK4VW+hBfRjfwuSLL6oa9+tbPi5f8+BWkADvKiJusUre6M7G5OxY3EYtXJwUkoiStzs5vAyz65gMAJUKh9LmDlfOB9NO7c4tYxeIXiskEQEu53N3xDrePCXdI+aUswX0IAvlovdc2v3wfrygBJRFrjCZvgpcxk64Ystle5aacjs1unbPyjJIBTJFxgdKeP/ilLkXsYh3/DnIL9AN3CKfpOuGYl1SHOVjxgX1vIFZi1bOgXhjo8vds9wWsxl/u5wOdQ5nxRFqeTFxrN63wv2bLrYKTxiz8UkHxOkWCtURiq8W07nUCWHxNlX7ZEOQJG3zpXbHuRx2oSIYQdB+gtui2x+tPBTvxrWWYrq7cbWvceyrkynMUIqOhldtEt/Q60W4nsvD1h4woL3b7LoYO8Z8lfcfMvpQr+jykSJCTHlFYtDYcqsLhepWLFBYZ8O8oLr/kDB0W0mUxqvG67N8zFGmj28hVzUOUnzB+byLVU2Qukz1/P4ouxzxw2F1uuf4mcmkaK4gQLpT3o5OEP/58LJ3AzQeMUKGCrq+3fzrgSkq5aRsS77lXrMfuTPsiVLfkU2ETV8gsXrL7tLkozbN8asIThPdBIeZVrY9kSFUs7d02lhN4EiZd6/KxJD4vx50IguW+JZ3ucdiyg+7WHhNeL7EvDCpEUt25YVrQZkaetYSdLVWJA/ihNF0Wr/l8T9LWeuADHUVMUn2nu1ir+luSlHlUpq5luikk+IT9IG1vt3UEsdnkRumvEQv2DUegpVUfU9r7+xYOb2Wsj2mRRdn9O9eghfcgJmH0gcn5JAdk5T5Q/qUV+3LGfnZ0np6eEq7AVxr6eu3wiGVSvolTTWID5tieZj9xrUkuadK6UHLn88yiAWU0kH57Z6h7TxKdh6ZiCKBJ+cXUokI7nKvwK9T2Z4r11FnRZPEfVjlWrtgKVexopnVk2aMikipqWXA9G06jtjKDulpRXUm7nLzKZToFxTcIuN8W9cY4wDgZALffBxlhxPV52yAaLB7ewAJQTPqz8J+zPRZdE5y6XUEX3XHP3zss7eWIyXHVLv4DYyr2VvOVR/EJ1Bc90nxzWZcYIl+/N7dYJz/Sv2bitAQaNTzyzkPY7/P1Fn2HZzG7gmiJBSkc7rW670Q7ceWM/M+KbOzhzI2pSAUBL2JRYB+jGg/rjQkaF7LpjloFC5+4l9kEQ9v2nXfTcu7IjJE2c+dI2MUnsJoJ3JHG5hgZp/5MGClKng2HtQ/gfFJ1kPq0wLvs3dJW41PyhtZKP1EYs/DMleNpDUCyZmf3OAJ+5h3cVOWObe78nt3bzigVKfUdebuthhGBPMc7YJNmy1V5jsRdP0B55kVwq02RxLRpO5ELyw4pdWUuN00BKn9VzM6i30Rh0TX1GPolfcohWR2YvALxdmd6Hx0FB3/Cr9ybJRb9EWq7EVFN6XGHWVNirXVzBRtf1e+KqEU/VrKUdpk/JrbID7sHjfPcB0k+TeI7FBcHAhtT/jW4LhWl8sl70JY5kIFzM7/CJEdWo3FttXFsEbdFcZk6lJGitP6L+9JGfHDc1lSC1B0cU1y/RUUd90VZs7ozt7jl9pzfB9hlsy8XFZAqyBs/5YuYImWUvzJmhLWyuJ/nMYB4arxtHcNGknsGqJN9RT5p3Ao76ll+5InhRTh/Fx8Md7yW4iy8wUjvXYz0NepSgixRNvW7n+BqKibSxeQ667zpXQ4Lbv/t9R1TR5Jnmzrzf+ZQoCu90NWP87dNdXJJbnd9835eCpXy/g3j///AIxzNKyFFTHuAAAAAElFTkSuQmCC;" parent="1" vertex="1">
          <mxGeometry x="599.5" y="180" width="42.01" height="40" as="geometry" />
        </mxCell>
        <mxCell id="suY-vxM38ZiqBG82jehO-7" value="" style="shape=image;verticalLabelPosition=bottom;labelBackgroundColor=#ffffff;verticalAlign=top;aspect=fixed;imageAspect=0;image=data:image/png,iVBORw0KGgoAAAANSUhEUgAAAOYAAADbCAMAAABOUB36AAAAclBMVEX///8hfrYAdLEAdrIAc7EbfLUSerQAd7L7/f72+vzU5O/A1ufm7/ba5/HO4OyFsdG+1ebx9vpZmMQwhbq30ON3qc3h7PQ+i72RuNbJ3OqhwtuHstJVlsM1h7utyuBLkcCkxNxooMhto8p7q86YvNgAa63hDeAuAAAZEUlEQVR4nNVdCbeqKhROENCywaHMBrXs/v+/+BwqNggI1jn3vm+99dZdJ0s2bDZ7ZrH4YQTxutiVp+N52+xv1X3fbM+POiuWUfjTb/4lRJt6e7lShDFjtAVpQUn3L4Yx8lma347lMv7bw/wA0e6YMIQYJR7xtGipbsklt9Pmf0hrlO2vCLeLp6dPIpYhnG93/yNSg+KctmtoSSCktV3X63H5t8dvgzC7MTSDRE4q8vbF36bCjDBLECa2jGqglDb/7pou9wx/sI4Spekj+tsEKRDWV2QtcKzAULL621RJiLYUf5XGHhSn9T+kP6xv2H4hW2nqwNqYHf8RQpcX334hcXpcLXd7e1lMGD7+A4fp8qIfcqvTMfEPuB6+Fd+Q9IGeHQj76yt6uGmJpO3xmTxKSCdJD+9vlpAFyHV3rrBehDH8CP4ekcEWaQZGMb6c1u0jNzALJIeLsoLrycpOeTrmSCPICCbZ36Iyk1jyNaRWj2lWA0UZoIV4IutlPiRj2H9ReWNqSgmqDqMR/AIOlXIpKSJbrsFAxsTyMB9gDuj+9ddgd8dKSine/j7nnn3Fpmx17zvURx+Yf+aPz/oE/IQPJiHILqpf9xjZ/TxhEJtUwa+tuBRlfwhkCl8u8DlQf0kifHRokGpHoNtvytyz4qSkfi5LiSMcqYrhoBjyJWU9fHgK3qXs1xY0yscTTfxkZFOEkAi1egoEsbScHbLrmFCCFGzxEygV7/ZvCsMJLKaChh4x3LyKn1jl45fR9DdE7h7J7yUoWSseDMDORLqRwam4qR7YpYr3ld8jR41oLHtwpTaBa75SKvkzIABSyFcbmJmH5Vf6P8y4xYiHmKeTCSkYll75PoHJOKsfCR4jiceqn1TnR++jSDO0dluB8Tf6nwSsTaju+I8TmXMJVe2T72AvcY9RAQNn/0j/gXjwXYD1euvKk/UF/EMnS1DJVL7MKhUiPv9q2fICELYkNzwniz7in+bRYUZ4leYTVSafFFgkf2P84Yb/rm/ixIJIA/C1G2Y+IilAQJB5MrkAMq5RizVfJp0QGhDcJWMBG9lkDg6S95WmZhGw4WPHU6dcDn7a/KSsmWCN1jEXa+n30dQ8ck4kdErbzvjuxBP+9kjaOeziQsUU1qLwIX499Q2++HrV4IXAfx8qpqNneFZyItEv0nmQqKRmmdKi4INB02GCeIvZQCjBkw9LZ/f31jMSXVE0nfb6A+k5sd0GxMenbwRNR4lW4nqyL+3P2JOmz8JVAXj2YfeW4ESYDdcuOnEobNDvyNswdf/RDedyrW0yQlD2drTFk7E0JIupmUQu/uTW5jtnLmcnDk0RWYqMGsILoTQoS44x4CYYXuho9SWuG9jy7Aurq9U8BpVAp/+pE/eMZ1AJ9Fk0Wpw4OydVXt2OmVqSWcZvL+J6fhb1hS7jdsyWS1O+54YQ+Qcrnz2zZhjyth+MTqSTfGJ/rgXZje3WsmV0LmdFFlxLrh2KRt5Aewh86yYDRATCmOykz0KwlJHg0NuN/Z4EXefmUwRQF/5E3EKvuMfutl9bch5gUJ8tlHFQMtvFHAoHuj/XDwZjHC7KIzc1KdRQ4p5hCR5FqymdmWMQCdNmf0ILWELxQ6/2YRouHBi0Sbe024z3stiszqkQyyRoP29B13CI87ZnIM64vSQLgAoEj5OWMHR8TdZ6K6SBzY0Z7CDDWQsPiD0chsojrgPYmtDeaHmWwF+Jt0K8WnRp8yM1MNsJR0jnhDdGhQLyg5Ob+/TemoKvK8BUGnF7vMAF9ZPixboF57+po/omHCuuvC+wrL2Q7V/8XiRWw79X45NDWNAukl/dj4/H/YrS1xPKsIUw0BT8BHUa6EJkWXJ1+ipXaEWLWsV9KyoK3T6fuB33M0Z/8OrJ1x0EtnU7hDcCyzpJ6uj9VcKmpXOcqEP7nTQ5NH9szvwS0plOPw8AOcEx/sSDCsTqqC2pKv5O2cVDvp3ohNuTufhugS9ZPOItcHy/lNrpwK3IVaUxEDrtWBsQCmeCfd5mDNNcXKUX1xCtoxzRXpE7wjzrYBA8FRy0NcgFzhYr0NsdJrbOfQYVI+q7ZMdAgWnhNBuwgfk6rv4kblIT+vxTUGwEFEqRdjglBPVVHAyj9OiUMwyDwdZSqAJpLMzVXOUS6L2pwz9IgFayBFFRPs7Hcuccu4RK32Qw4zlQ+BXn4BowT14SKJRCduaA0DwkcG9bsfsVLKabYtCB60BvCfQbZEauawPXH7nrwtykf2sVv0GmkJIyHaEQFtNZ/rQkcW38rQOFf7Dd3vwEUAqxadfcCiYkuZdIcCcZqd4j2CxF/EjlRQmC+2RydwI/Ep0x6zsuaF2thU8B2JBNCdsCbuUZvk8uaNmPZEAYsIPW68SzyWeLCSJ+WPBjheUTP1j+BZYTmfXMCGiHhtQsPaqxoO0R+riHMfujTl64zPFSg4xzLhiU2HLlcNZiLhh3HYgq/1NhFR0Ko3HSJ9ispDy4nCZFSkianCMPuW1DpO1xVbGyBK5M25mqMjK7/DnhuVmCUnWeDHjaZ0aFA2bXznk7CJJ7yHCmAKV9hgK0EBR3ie2etpLR4QJy3/1ZRQpAFTKcKTDPbl6EqeaKe6uJBGEcrZ+b5BnARu8dG+/Px8epLrNsVywPcdx9oNAUnQDz//RC6GSVDGkCj8Z7eZ56reXoX4Tf5l6wyO9EDcO4/a9VBhlJrxV3CuJZzAQMB4MQ4pLKQl2SEEab7LGHrrKhDcBLL84GMrnNGwkR4u5xGOAieXPaLWPXUSwt8v8Az7qcJofVqUmu1FfX/7/ILLDESjKZEkjf/sHLb+d64yDzQUq2TooBnjUeO2/ERb2/IoQZpdoGDi8yBxkMwg0TZD6J7YP3CFfbcm3leoM0aOI+XM5Om9Nx8bilQ4cKM15kxj1V4DizIvM9IIoRy/flcorWaJJrwXvNBtuh3BOM2RSBIplDOBDkzziR+aS1Xdjr2dzpApyJat8XMNh8rTg/lDfPd6ik5qZ5v2vAaeZO5pNWjPJGT2oNTgslFclUala4aih27d7wJrM/E4GHeiaZT1Lx9agWHzHgyVrxeQASIxQ8G5cJc1nFEZn9LALd6gMyB1KR16isOs61yrBIoYml9zTW1axeKt1oXu+6d98HfBT9YU9zhBgb7RhAEbuv5KMVxH9Uei0P8UipWWF50ZU8G8AYalUgRNKXbtsrSMAhEZ5Oj+O22d9vlzwlyPefjZOIy65o2ZfdxTUFKVsqvRwsNjRilntbmerBihha74q10MKqkw36uqFFEK2L7HRskrxdJNQSbEtux70PKJGMeZEhUO7f+myQ5crq39GbugZO+JrwFyiKMdnYCFUjjJZZvb3lXrfA1IZahu584XjcSGG1gkzfl3ckfEw2Guk7VGEvOZe9RvbeY4rQZrf3He2ecN3qkRXp8qUmtRCUv4R4BhIjR9oE37nPscTnCW5tKfRp1ZSgB9d7WygMnK4uYIZ/e9F1PSubiqGJhSUoHV4K01xH+t5N3Jrh2dgfpV1DWh130vnLowiKepJoNpkD1tm5osZ1JXgglM/GODjGZXq3EjVTdm54kuin+3KtECZ8HhVpvP3m/7SO9pA1ua9fAILzdo/e1cK0A4jDo2iZ6vZkl+u7L3WqIK9XURn/3TrQGYlYMuJdk2p78RB0D3gflJELAXrbt+rGOKRvNGJyXnCjVuXjvXYSHrOvBFCiXidTrwQFXlgkfa+GuSNKGhHbrybMIO7w8hVPXmirXu1Z+qUGDeFqr1awYZWKzFVb4/FIELFpCpe950rlmGvPM3SIEM2/11lkdWPm00B2C18MTzP/NtIcleCmnMwsHVptEsWLhn6zeq3VRHPfIHzleFWqe5Ci9GQbTOGcr4oXn1j355CRb1V1PXE4E60WI4naEGse8xOHEBZ3xDDFpx1LL/oOAOzLVbRBVml0UknURkj1EEV3J6/w28h5pwRBFHh46ZV8vYq2VR7uasErOko2CjKpf3cU/o2RzDUelKAuu9NqPYOsSZJ9bbllDjfFOSiZRLux0oMuzv59bhuomDb2n3GV7jFmDkC2CM6d47e1fazT2g63cdKqGHGvZTLpnEZLdx6qVo0bP+2WsH9Bbj4/1x6XZ1fbo7YYdUwRD86jxNjoNudwA6lPqo/ffr1e5SLEtCWWkAOpvf12lnsGCBJU0g5mVugkxtVc5G/zrOduU4l2LK6Kg8ZfiPqCmOx6h5/NbmtyMa9m8vbNDHn4RD+bYjmfRxxyu8U+FKIpJmT2yYUU1gD5FaqP79zL/axY0vWnOcjOTZd0jwhyglQ8ATlkdlHlBJlnMNjTcIKxi3L8sqjwsAt/LYGuI3prQG6XqW3MBDiZvurjGgGJ+dzHlKg2aC4fDHYRuhdAMFmMF4EA7gf1noBMlaDO4GkavLaQr/AyjpQVlWGnR6gL1HLNnX1QjQ1SB1TDKgRB8nYb41HDqqWsYbvO/U3jJgG74APrnpOpFBlrUfN5120T2TM1Uj1dXUggRVtIaAFkflCLPUFmJKUabV+LRvBFmNyDRKZzknamyQMFE/dBKzBApoonYvn44IUgRCzCl6h0zp7JNOlJYG9+0BEC7E0l69ejL4C2ZinwZwh9CJjnfMJxN4a4N0FS37w0sh669MsXRvl6IUywwTnXP09DnLELzuDG3UfG7XtR0oKDis3PRAdkKll/vGEjocjUr94TEZ2SNE2vyTmbIyuACBI2iqAFzT5SOJnWzTPE7lkEXctv+Dd15XiCTuvPbdQHVtPauV6IlhNhSBlqdwNXg0TX3l1QIudGOi4zyFysRg0nsbfXtGWxBbcrxSNZtjfndQwF9qbDiqxGro0uAYgk23JVLA9RHK2XxWqXlXV/o1Ozb86PU7baRAbDH2TcC5wpmwQsn5PoCbwHLn0pClVOCenvbMII+V2FTpenyV4pGcNtTsirjrpoB3dKiWWOJ9mHQvyzu5vkrpnEKSytsxuEIXZx5OqkYm9AprBcu7E7mrn3xQeePbfvHmbfpEKUt6YAthJmYaPyuuPUUeQ2mp0/jThXe81tQJF3kpg34Q5jgSdlZfkJdHVaFb7DjXUYSowa7boAS6kxp/duF51IY0P2ORuYWAeKhBiKu2Z8dLhVRTFOKvDPi045ccfwA2xvewiehIR+V+x013HYEYpyqHnVA51y8kGlf0Ur0Lyj1fkCDIM5lagHZZzcnlC/ARsx65lDjm825jdQVJXTikmm0ZhtEVb6/BVATldK36M7SeEnzAN812sd8vkNgyjKU4xgdH1MmNwrjZlnj0QTZ+XAOG/qYh21utEmO21vKUaMZyBAx2/nUZLNe5Bm6mXKLiHdGeWnhrxkmElC5tao3o3rSXA6igPGm/JO/FeyBc45YWtG5MgczACLgkZ/AxFG+bHQkMrzglwbmXDcDHQSbenrobyRIY5LgB15oKPwIqhIbJ87GC7N6nSsvNkptmqkLYRzgF4YmhvjBpuz1zdCQ6A6YiQiuHUx+BWK3CTfu1QoLzmuxPfy0/cDp7ZGU+nCf5Na9mbbUcpy/cYCydHPIe6MhA6OGt9Lztn6/at8hG7tiQTcdZLBSk/ZNBQzonVeFON82kVRTd/e1llFjFTNadVS+xZ5yuQDS6zVy2lv9OwS9EenpIKaQPCD68YqBZwMFV3gSeeWLQAX1dw67fboQXSOO+7cEw69sKywzaHdDwXM/QdejpVqOV1tno1mPaGfRPzk8LjaZLwL+MR5r1SwZ5V6K7Az1KEslmfPvoChn/xP3HMjX4anCQzPAEgcVp7C64cpL1nGJ/FDoZfYC8rAsApTGimoa9Rs96hMsEUtY0/mR9net/ErbGvKoz+t7m1icMAqhtYyy67lFpssDrFsPqfBaqzB22YfPFh7mvm50hPWAzR7NbdNCZb1baqA88P+MmOOsfVHDAcGYajSJfvZ39Sy6MpxT6Zy3HltKN44j4SAZSiXWw9E51MHPmnLwGm8qZuqtXExHZXCuHcBg1BoQnb98wANOmEPbj1xsv6jTXlOrrRzjQMmc/Zmh/Fh3ffhWx7iMB/zh9XE8dnW65vgN92DuWG8XJV8dMhF21uebnlKW654dftSORFsApJAM9c7MOyu9DKB7ymH6wHqwc8xJbxtunHCLhbaAYA64I97ktgHixTJvmpMS2/YVMXA48A2mJe5xw8861Zet0kvFx/TlC0GBLTJ7//FfkG27T4eDkEFMtF2PQBHuTH9DXZ/mmMxcm3UsqhGXTKhpdP8o7XtKsHcxVkZJe95spTVNzcLz3wVHagZMmcFfLEzm1VWnHPzA5PIgH0TJw5ZIJFnBQhAiNNG14ZNqrsGQxbWj37PgYemfA3gfHVvwbsQYn82Jy9wylJE0yqpUjphE2i3p9AEc+rF+WfLCcIoFiYFF40UN5thncL16eIbKGU67QYu5uRpBrMQZuxO0Lzeoj7q/TTaCrwY14obq9+jUjMkuNjd0EXiDdif1v3sBA0JLVTtV36wQl0tKq1ypKzPjsG8MAubHnSSnKMKAVE7rYI+K7rVPFZoV1RVQQJ7nltlxsPe0e6a7d1FeX+tpubjWtPVhnij3QQNVLsLCaA32D17Dyjv098dLFy9yRTvNUX7o+I42KR98l5TxVdcpRDvLGARsR5aNZm8gJvxref9b0vRsRp2D67tRgp68rlLIR6LsTD3h77W5mWXa/ie4xJ8rLBHqH0wDobefNfLr4iLDKqmyVwslQsq0AnTgZH1gEWvt6NTh6uLFkm1feBmMiVsq9J8gTq0+qNbZjOE+1Ac2dapSXavNE27YEc3cw8EvReg5vNgdX/nC7CiwPGqEK4VW+hBfRjfwuSLL6oa9+tbPi5f8+BWkADvKiJusUre6M7G5OxY3EYtXJwUkoiStzs5vAyz65gMAJUKh9LmDlfOB9NO7c4tYxeIXiskEQEu53N3xDrePCXdI+aUswX0IAvlovdc2v3wfrygBJRFrjCZvgpcxk64Ystle5aacjs1unbPyjJIBTJFxgdKeP/ilLkXsYh3/DnIL9AN3CKfpOuGYl1SHOVjxgX1vIFZi1bOgXhjo8vds9wWsxl/u5wOdQ5nxRFqeTFxrN63wv2bLrYKTxiz8UkHxOkWCtURiq8W07nUCWHxNlX7ZEOQJG3zpXbHuRx2oSIYQdB+gtui2x+tPBTvxrWWYrq7cbWvceyrkynMUIqOhldtEt/Q60W4nsvD1h4woL3b7LoYO8Z8lfcfMvpQr+jykSJCTHlFYtDYcqsLhepWLFBYZ8O8oLr/kDB0W0mUxqvG67N8zFGmj28hVzUOUnzB+byLVU2Qukz1/P4ouxzxw2F1uuf4mcmkaK4gQLpT3o5OEP/58LJ3AzQeMUKGCrq+3fzrgSkq5aRsS77lXrMfuTPsiVLfkU2ETV8gsXrL7tLkozbN8asIThPdBIeZVrY9kSFUs7d02lhN4EiZd6/KxJD4vx50IguW+JZ3ucdiyg+7WHhNeL7EvDCpEUt25YVrQZkaetYSdLVWJA/ihNF0Wr/l8T9LWeuADHUVMUn2nu1ir+luSlHlUpq5luikk+IT9IG1vt3UEsdnkRumvEQv2DUegpVUfU9r7+xYOb2Wsj2mRRdn9O9eghfcgJmH0gcn5JAdk5T5Q/qUV+3LGfnZ0np6eEq7AVxr6eu3wiGVSvolTTWID5tieZj9xrUkuadK6UHLn88yiAWU0kH57Z6h7TxKdh6ZiCKBJ+cXUokI7nKvwK9T2Z4r11FnRZPEfVjlWrtgKVexopnVk2aMikipqWXA9G06jtjKDulpRXUm7nLzKZToFxTcIuN8W9cY4wDgZALffBxlhxPV52yAaLB7ewAJQTPqz8J+zPRZdE5y6XUEX3XHP3zss7eWIyXHVLv4DYyr2VvOVR/EJ1Bc90nxzWZcYIl+/N7dYJz/Sv2bitAQaNTzyzkPY7/P1Fn2HZzG7gmiJBSkc7rW670Q7ceWM/M+KbOzhzI2pSAUBL2JRYB+jGg/rjQkaF7LpjloFC5+4l9kEQ9v2nXfTcu7IjJE2c+dI2MUnsJoJ3JHG5hgZp/5MGClKng2HtQ/gfFJ1kPq0wLvs3dJW41PyhtZKP1EYs/DMleNpDUCyZmf3OAJ+5h3cVOWObe78nt3bzigVKfUdebuthhGBPMc7YJNmy1V5jsRdP0B55kVwq02RxLRpO5ELyw4pdWUuN00BKn9VzM6i30Rh0TX1GPolfcohWR2YvALxdmd6Hx0FB3/Cr9ybJRb9EWq7EVFN6XGHWVNirXVzBRtf1e+KqEU/VrKUdpk/JrbID7sHjfPcB0k+TeI7FBcHAhtT/jW4LhWl8sl70JY5kIFzM7/CJEdWo3FttXFsEbdFcZk6lJGitP6L+9JGfHDc1lSC1B0cU1y/RUUd90VZs7ozt7jl9pzfB9hlsy8XFZAqyBs/5YuYImWUvzJmhLWyuJ/nMYB4arxtHcNGknsGqJN9RT5p3Ao76ll+5InhRTh/Fx8Md7yW4iy8wUjvXYz0NepSgixRNvW7n+BqKibSxeQ667zpXQ4Lbv/t9R1TR5Jnmzrzf+ZQoCu90NWP87dNdXJJbnd9835eCpXy/g3j///AIxzNKyFFTHuAAAAAElFTkSuQmCC;" parent="1" vertex="1">
          <mxGeometry x="599.5" y="300.25" width="42.01" height="40" as="geometry" />
        </mxCell>
        <mxCell id="suY-vxM38ZiqBG82jehO-8" value="&amp;lt;/&amp;gt;" style="rounded=1;arcSize=5;fillColor=#0065FF;strokeColor=none;fontColor=#ffffff;align=center;verticalAlign=middle;whiteSpace=wrap;fontSize=14;fontStyle=1;html=1;sketch=0;" parent="1" vertex="1">
          <mxGeometry x="780" y="349" width="80" height="80" as="geometry" />
        </mxCell>
        <mxCell id="suY-vxM38ZiqBG82jehO-9" value="&amp;lt;/&amp;gt;" style="rounded=1;arcSize=5;fillColor=#0065FF;strokeColor=none;fontColor=#ffffff;align=center;verticalAlign=middle;whiteSpace=wrap;fontSize=14;fontStyle=1;html=1;sketch=0;" parent="1" vertex="1">
          <mxGeometry x="780" y="229.5" width="80" height="79.5" as="geometry" />
        </mxCell>
        <mxCell id="suY-vxM38ZiqBG82jehO-10" value="" style="rounded=1;arcSize=5;fillColor=#0065FF;strokeColor=none;fontColor=#ffffff;align=center;verticalAlign=middle;whiteSpace=wrap;fontSize=14;fontStyle=1;html=1;sketch=0;" parent="1" vertex="1">
          <mxGeometry x="780" y="110" width="80" height="79" as="geometry" />
        </mxCell>
        <mxCell id="suY-vxM38ZiqBG82jehO-11" value="" style="outlineConnect=0;dashed=0;verticalLabelPosition=bottom;verticalAlign=top;align=center;html=1;shape=mxgraph.aws3.queue;fillColor=#D9A741;gradientColor=none;fontColor=#000000;" parent="1" vertex="1">
          <mxGeometry x="800" y="250.75" width="40" height="37" as="geometry" />
        </mxCell>
        <mxCell id="suY-vxM38ZiqBG82jehO-13" value="" style="shape=datastore;whiteSpace=wrap;html=1;fontColor=#000000;" parent="1" vertex="1">
          <mxGeometry x="800" y="369" width="40" height="40" as="geometry" />
        </mxCell>
        <mxCell id="suY-vxM38ZiqBG82jehO-14" value="" style="points=[[0.5,0,0],[0.765,0.48,0],[0.99,0.98,0],[0.5,1,0],[0.01,0.98,0],[0.235,0.48,0]];verticalLabelPosition=bottom;sketch=0;html=1;verticalAlign=top;aspect=fixed;align=center;pointerEvents=1;shape=mxgraph.cisco19.ldap;shadow=0;" parent="1" vertex="1">
          <mxGeometry x="795" y="128.25" width="50" height="42.5" as="geometry" />
        </mxCell>
        <mxCell id="suY-vxM38ZiqBG82jehO-24" value="MQ" style="text;html=1;align=center;verticalAlign=middle;resizable=0;points=[];autosize=1;strokeColor=none;fillColor=none;fontColor=#000000;" parent="1" vertex="1">
          <mxGeometry x="865" y="259.25" width="30" height="20" as="geometry" />
        </mxCell>
        <mxCell id="suY-vxM38ZiqBG82jehO-25" value="DB2" style="text;html=1;align=center;verticalAlign=middle;resizable=0;points=[];autosize=1;strokeColor=none;fillColor=none;fontColor=#000000;" parent="1" vertex="1">
          <mxGeometry x="860" y="379" width="40" height="20" as="geometry" />
        </mxCell>
        <mxCell id="rrsJVix6qKpGxg5yvODt-5" style="edgeStyle=orthogonalEdgeStyle;rounded=0;orthogonalLoop=1;jettySize=auto;html=1;exitX=1;exitY=0.5;exitDx=0;exitDy=0;entryX=1;entryY=0.5;entryDx=0;entryDy=0;fontColor=#000000;endArrow=none;endFill=0;strokeWidth=2;fillColor=#f8cecc;strokeColor=#b85450;" parent="1" source="rrsJVix6qKpGxg5yvODt-1" target="rrsJVix6qKpGxg5yvODt-2" edge="1">
          <mxGeometry relative="1" as="geometry">
            <Array as="points">
              <mxPoint x="680" y="234" />
              <mxPoint x="680" y="354" />
            </Array>
          </mxGeometry>
        </mxCell>
        <mxCell id="rrsJVix6qKpGxg5yvODt-1" value="SC" style="rounded=0;whiteSpace=wrap;html=1;shadow=0;labelBackgroundColor=none;strokeWidth=1;fillColor=#ffcccc;strokeColor=#36393d;" parent="1" vertex="1">
          <mxGeometry x="595.51" y="224" width="50" height="20" as="geometry" />
        </mxCell>
        <mxCell id="rrsJVix6qKpGxg5yvODt-2" value="SC" style="rounded=0;whiteSpace=wrap;html=1;shadow=0;labelBackgroundColor=none;strokeWidth=1;fillColor=#ffcccc;strokeColor=#36393d;" parent="1" vertex="1">
          <mxGeometry x="595.51" y="344" width="50" height="20" as="geometry" />
        </mxCell>
        <mxCell id="rrsJVix6qKpGxg5yvODt-8" value="LDAP" style="text;html=1;align=center;verticalAlign=middle;resizable=0;points=[];autosize=1;strokeColor=none;fillColor=none;fontColor=#000000;" parent="1" vertex="1">
          <mxGeometry x="860" y="139.5" width="50" height="20" as="geometry" />
        </mxCell>
      </root>
    </mxGraphModel>
  </diagram>
  <diagram id="jjLEolp6sSsAF5W7g5JV" name="Page-2">
    <mxGraphModel dx="981" dy="548" grid="1" gridSize="10" guides="1" tooltips="1" connect="1" arrows="1" fold="1" page="1" pageScale="1" pageWidth="1169" pageHeight="827" math="0" shadow="0">
      <root>
        <mxCell id="Cj9EfxJEQ7uuNUUtOf_K-0" />
        <mxCell id="Cj9EfxJEQ7uuNUUtOf_K-1" parent="Cj9EfxJEQ7uuNUUtOf_K-0" />
        <mxCell id="Cj9EfxJEQ7uuNUUtOf_K-2" value="Websphere Liberty Server" style="points=[[0,0],[0.25,0],[0.5,0],[0.75,0],[1,0],[1,0.25],[1,0.5],[1,0.75],[1,1],[0.75,1],[0.5,1],[0.25,1],[0,1],[0,0.75],[0,0.5],[0,0.25]];outlineConnect=0;gradientColor=none;html=1;whiteSpace=wrap;fontSize=12;fontStyle=0;shape=mxgraph.aws4.group;grIcon=mxgraph.aws4.group_on_premise;strokeColor=#5A6C86;fillColor=default;verticalAlign=top;align=left;spacingLeft=30;fontColor=#5A6C86;dashed=0;strokeWidth=4;" parent="Cj9EfxJEQ7uuNUUtOf_K-1" vertex="1">
          <mxGeometry x="321" y="50" width="680" height="480" as="geometry" />
        </mxCell>
        <mxCell id="Cj9EfxJEQ7uuNUUtOf_K-3" value="LDAP Server" style="points=[[0.5,0,0],[0.765,0.48,0],[0.99,0.98,0],[0.5,1,0],[0.01,0.98,0],[0.235,0.48,0]];verticalLabelPosition=bottom;sketch=0;html=1;verticalAlign=top;aspect=fixed;align=center;pointerEvents=1;shape=mxgraph.cisco19.ldap;fillColor=#005073;strokeColor=none;" parent="Cj9EfxJEQ7uuNUUtOf_K-1" vertex="1">
          <mxGeometry x="305.72" y="610" width="85.29" height="72.5" as="geometry" />
        </mxCell>
        <mxCell id="Cj9EfxJEQ7uuNUUtOf_K-5" value="Web Container" style="swimlane;" parent="Cj9EfxJEQ7uuNUUtOf_K-1" vertex="1">
          <mxGeometry x="361" y="170" width="217" height="300" as="geometry" />
        </mxCell>
        <mxCell id="Cj9EfxJEQ7uuNUUtOf_K-6" value="EJB Container" style="swimlane;" parent="Cj9EfxJEQ7uuNUUtOf_K-1" vertex="1">
          <mxGeometry x="741" y="210" width="210" height="220" as="geometry" />
        </mxCell>
        <mxCell id="Cj9EfxJEQ7uuNUUtOf_K-8" value="Shared Libraries" style="swimlane;" parent="Cj9EfxJEQ7uuNUUtOf_K-1" vertex="1">
          <mxGeometry x="541.01" y="70" width="240" height="90" as="geometry" />
        </mxCell>
        <mxCell id="Cj9EfxJEQ7uuNUUtOf_K-9" value="laboratorio-jpa.jar" style="rounded=1;whiteSpace=wrap;html=1;" parent="Cj9EfxJEQ7uuNUUtOf_K-1" vertex="1">
          <mxGeometry x="601" y="120" width="120" height="30" as="geometry" />
        </mxCell>
        <mxCell id="Cj9EfxJEQ7uuNUUtOf_K-10" value="laboratorio-web.war" style="swimlane;fillColor=#9AC7BF;" parent="Cj9EfxJEQ7uuNUUtOf_K-1" vertex="1">
          <mxGeometry x="371" y="200" width="197" height="260" as="geometry" />
        </mxCell>
        <mxCell id="Cj9EfxJEQ7uuNUUtOf_K-12" value="SECURITY CONSTRAINT" style="rounded=1;whiteSpace=wrap;html=1;" parent="Cj9EfxJEQ7uuNUUtOf_K-10" vertex="1">
          <mxGeometry x="20" y="30" width="150" height="30" as="geometry" />
        </mxCell>
        <mxCell id="Cj9EfxJEQ7uuNUUtOf_K-11" value="laboratorio-ejb.ejb" style="swimlane;fillColor=#FFCE9F;" parent="Cj9EfxJEQ7uuNUUtOf_K-1" vertex="1">
          <mxGeometry x="751" y="240" width="190" height="180" as="geometry" />
        </mxCell>
        <mxCell id="e1eXSrKv4xGoKaZF2_N9-12" value="SessionBean&lt;br&gt;@QueueFacade" style="rounded=1;whiteSpace=wrap;html=1;" parent="Cj9EfxJEQ7uuNUUtOf_K-11" vertex="1">
          <mxGeometry x="20" y="130" width="150" height="30" as="geometry" />
        </mxCell>
        <mxCell id="Cj9EfxJEQ7uuNUUtOf_K-17" style="edgeStyle=orthogonalEdgeStyle;rounded=0;orthogonalLoop=1;jettySize=auto;html=1;exitX=0;exitY=0.5;exitDx=0;exitDy=0;entryX=0.235;entryY=0.48;entryDx=0;entryDy=0;entryPerimeter=0;fillColor=#f8cecc;strokeColor=#b85450;strokeWidth=2;endArrow=none;endFill=0;" parent="Cj9EfxJEQ7uuNUUtOf_K-1" source="i9q5EOwxq1xMLSf2oKAz-0" target="Cj9EfxJEQ7uuNUUtOf_K-3" edge="1">
          <mxGeometry relative="1" as="geometry">
            <Array as="points">
              <mxPoint x="268" y="285" />
              <mxPoint x="268" y="645" />
            </Array>
          </mxGeometry>
        </mxCell>
        <mxCell id="Cj9EfxJEQ7uuNUUtOf_K-18" value="User authentication" style="edgeLabel;html=1;align=center;verticalAlign=middle;resizable=0;points=[];" parent="Cj9EfxJEQ7uuNUUtOf_K-17" vertex="1" connectable="0">
          <mxGeometry x="0.3612" y="-3" relative="1" as="geometry">
            <mxPoint as="offset" />
          </mxGeometry>
        </mxCell>
        <mxCell id="Cj9EfxJEQ7uuNUUtOf_K-21" value="Session Validation" style="edgeStyle=orthogonalEdgeStyle;rounded=0;orthogonalLoop=1;jettySize=auto;html=1;exitX=1;exitY=0.25;exitDx=0;exitDy=0;endArrow=none;endFill=0;strokeWidth=2;fillColor=#f8cecc;strokeColor=#b85450;fontSize=8;" parent="Cj9EfxJEQ7uuNUUtOf_K-1" source="Cj9EfxJEQ7uuNUUtOf_K-12" edge="1">
          <mxGeometry x="-0.558" y="8" relative="1" as="geometry">
            <mxPoint x="656" y="480" as="targetPoint" />
            <Array as="points">
              <mxPoint x="656" y="238" />
            </Array>
            <mxPoint as="offset" />
          </mxGeometry>
        </mxCell>
        <mxCell id="e1eXSrKv4xGoKaZF2_N9-0" style="edgeStyle=orthogonalEdgeStyle;rounded=0;orthogonalLoop=1;jettySize=auto;html=1;exitX=1;exitY=0.5;exitDx=0;exitDy=0;entryX=1;entryY=0.5;entryDx=0;entryDy=0;endArrow=none;endFill=0;strokeWidth=2;fillColor=#d5e8d4;strokeColor=#82b366;" parent="Cj9EfxJEQ7uuNUUtOf_K-1" source="Cj9EfxJEQ7uuNUUtOf_K-12" target="Cj9EfxJEQ7uuNUUtOf_K-22" edge="1">
          <mxGeometry relative="1" as="geometry">
            <Array as="points">
              <mxPoint x="558" y="245" />
              <mxPoint x="558" y="433" />
            </Array>
          </mxGeometry>
        </mxCell>
        <mxCell id="e1eXSrKv4xGoKaZF2_N9-1" style="edgeStyle=orthogonalEdgeStyle;rounded=0;orthogonalLoop=1;jettySize=auto;html=1;entryX=1;entryY=0.5;entryDx=0;entryDy=0;endArrow=none;endFill=0;strokeWidth=2;exitX=1;exitY=0.5;exitDx=0;exitDy=0;fillColor=#d5e8d4;strokeColor=#82b366;" parent="Cj9EfxJEQ7uuNUUtOf_K-1" source="Cj9EfxJEQ7uuNUUtOf_K-12" target="Cj9EfxJEQ7uuNUUtOf_K-13" edge="1">
          <mxGeometry relative="1" as="geometry">
            <Array as="points">
              <mxPoint x="558" y="245" />
              <mxPoint x="558" y="320" />
            </Array>
          </mxGeometry>
        </mxCell>
        <mxCell id="e1eXSrKv4xGoKaZF2_N9-2" style="edgeStyle=orthogonalEdgeStyle;rounded=0;orthogonalLoop=1;jettySize=auto;html=1;exitX=1;exitY=0.5;exitDx=0;exitDy=0;entryX=1;entryY=0.5;entryDx=0;entryDy=0;endArrow=none;endFill=0;strokeWidth=2;fillColor=#d5e8d4;strokeColor=#82b366;" parent="Cj9EfxJEQ7uuNUUtOf_K-1" source="Cj9EfxJEQ7uuNUUtOf_K-12" target="Cj9EfxJEQ7uuNUUtOf_K-14" edge="1">
          <mxGeometry relative="1" as="geometry">
            <Array as="points">
              <mxPoint x="558" y="245" />
              <mxPoint x="558" y="355" />
            </Array>
          </mxGeometry>
        </mxCell>
        <mxCell id="e1eXSrKv4xGoKaZF2_N9-3" style="edgeStyle=orthogonalEdgeStyle;rounded=0;orthogonalLoop=1;jettySize=auto;html=1;exitX=1;exitY=0.5;exitDx=0;exitDy=0;entryX=1;entryY=0.5;entryDx=0;entryDy=0;endArrow=none;endFill=0;strokeWidth=2;fillColor=#d5e8d4;strokeColor=#82b366;" parent="Cj9EfxJEQ7uuNUUtOf_K-1" source="Cj9EfxJEQ7uuNUUtOf_K-12" target="Cj9EfxJEQ7uuNUUtOf_K-15" edge="1">
          <mxGeometry relative="1" as="geometry">
            <Array as="points">
              <mxPoint x="558" y="245" />
              <mxPoint x="558" y="392" />
            </Array>
          </mxGeometry>
        </mxCell>
        <mxCell id="e1eXSrKv4xGoKaZF2_N9-7" style="edgeStyle=orthogonalEdgeStyle;rounded=0;orthogonalLoop=1;jettySize=auto;html=1;exitX=1;exitY=0.25;exitDx=0;exitDy=0;entryX=0.25;entryY=1;entryDx=0;entryDy=0;endArrow=none;endFill=0;strokeWidth=2;fillColor=#fff2cc;strokeColor=#d6b656;dashed=1;" parent="Cj9EfxJEQ7uuNUUtOf_K-1" source="Cj9EfxJEQ7uuNUUtOf_K-13" target="Cj9EfxJEQ7uuNUUtOf_K-9" edge="1">
          <mxGeometry relative="1" as="geometry">
            <Array as="points">
              <mxPoint x="631" y="313" />
            </Array>
          </mxGeometry>
        </mxCell>
        <mxCell id="e1eXSrKv4xGoKaZF2_N9-15" style="edgeStyle=orthogonalEdgeStyle;rounded=0;orthogonalLoop=1;jettySize=auto;html=1;exitX=1;exitY=0.75;exitDx=0;exitDy=0;entryX=0;entryY=0.5;entryDx=0;entryDy=0;endArrow=none;endFill=0;strokeWidth=2;fillColor=#dae8fc;strokeColor=#6c8ebf;" parent="Cj9EfxJEQ7uuNUUtOf_K-1" source="Cj9EfxJEQ7uuNUUtOf_K-13" target="e1eXSrKv4xGoKaZF2_N9-11" edge="1">
          <mxGeometry relative="1" as="geometry">
            <Array as="points">
              <mxPoint x="678" y="328" />
              <mxPoint x="678" y="340" />
            </Array>
          </mxGeometry>
        </mxCell>
        <mxCell id="e1eXSrKv4xGoKaZF2_N9-18" value="EJB Local" style="edgeLabel;html=1;align=center;verticalAlign=middle;resizable=0;points=[];" parent="e1eXSrKv4xGoKaZF2_N9-15" vertex="1" connectable="0">
          <mxGeometry x="0.3072" y="-4" relative="1" as="geometry">
            <mxPoint x="12" y="6" as="offset" />
          </mxGeometry>
        </mxCell>
        <mxCell id="Cj9EfxJEQ7uuNUUtOf_K-13" value="protected&lt;br&gt;@DBListServlet" style="rounded=1;whiteSpace=wrap;html=1;" parent="Cj9EfxJEQ7uuNUUtOf_K-1" vertex="1">
          <mxGeometry x="391" y="305" width="150" height="30" as="geometry" />
        </mxCell>
        <mxCell id="e1eXSrKv4xGoKaZF2_N9-6" style="edgeStyle=orthogonalEdgeStyle;rounded=0;orthogonalLoop=1;jettySize=auto;html=1;exitX=0;exitY=0.5;exitDx=0;exitDy=0;entryX=0;entryY=0.5;entryDx=0;entryDy=0;entryPerimeter=0;endArrow=none;endFill=0;strokeWidth=2;fillColor=#dae8fc;strokeColor=#6c8ebf;" parent="Cj9EfxJEQ7uuNUUtOf_K-1" source="Cj9EfxJEQ7uuNUUtOf_K-14" target="e1eXSrKv4xGoKaZF2_N9-4" edge="1">
          <mxGeometry relative="1" as="geometry">
            <Array as="points">
              <mxPoint x="348" y="355" />
              <mxPoint x="348" y="580" />
              <mxPoint x="528" y="580" />
              <mxPoint x="528" y="650" />
            </Array>
          </mxGeometry>
        </mxCell>
        <mxCell id="e1eXSrKv4xGoKaZF2_N9-14" value="Transactions / Queries" style="edgeLabel;html=1;align=center;verticalAlign=middle;resizable=0;points=[];" parent="e1eXSrKv4xGoKaZF2_N9-6" vertex="1" connectable="0">
          <mxGeometry x="0.3029" y="-1" relative="1" as="geometry">
            <mxPoint as="offset" />
          </mxGeometry>
        </mxCell>
        <mxCell id="e1eXSrKv4xGoKaZF2_N9-9" style="edgeStyle=orthogonalEdgeStyle;rounded=0;orthogonalLoop=1;jettySize=auto;html=1;exitX=1;exitY=0.25;exitDx=0;exitDy=0;entryX=0.25;entryY=1;entryDx=0;entryDy=0;dashed=1;endArrow=none;endFill=0;strokeWidth=2;fillColor=#fff2cc;strokeColor=#d6b656;" parent="Cj9EfxJEQ7uuNUUtOf_K-1" source="Cj9EfxJEQ7uuNUUtOf_K-14" target="Cj9EfxJEQ7uuNUUtOf_K-9" edge="1">
          <mxGeometry relative="1" as="geometry">
            <Array as="points">
              <mxPoint x="631" y="348" />
            </Array>
          </mxGeometry>
        </mxCell>
        <mxCell id="Cj9EfxJEQ7uuNUUtOf_K-14" value="protected&lt;br&gt;@DBDeleteServlet" style="rounded=1;whiteSpace=wrap;html=1;" parent="Cj9EfxJEQ7uuNUUtOf_K-1" vertex="1">
          <mxGeometry x="391" y="340" width="150" height="30" as="geometry" />
        </mxCell>
        <mxCell id="e1eXSrKv4xGoKaZF2_N9-24" style="edgeStyle=orthogonalEdgeStyle;rounded=0;orthogonalLoop=1;jettySize=auto;html=1;exitX=1;exitY=0.25;exitDx=0;exitDy=0;entryX=0;entryY=0.5;entryDx=0;entryDy=0;endArrow=none;endFill=0;strokeWidth=2;fillColor=#e1d5e7;strokeColor=#9673a6;" parent="Cj9EfxJEQ7uuNUUtOf_K-1" source="Cj9EfxJEQ7uuNUUtOf_K-15" target="e1eXSrKv4xGoKaZF2_N9-12" edge="1">
          <mxGeometry relative="1" as="geometry" />
        </mxCell>
        <mxCell id="Cj9EfxJEQ7uuNUUtOf_K-15" value="protected&lt;br&gt;@MqServlet" style="rounded=1;whiteSpace=wrap;html=1;" parent="Cj9EfxJEQ7uuNUUtOf_K-1" vertex="1">
          <mxGeometry x="391" y="377" width="150" height="30" as="geometry" />
        </mxCell>
        <mxCell id="Cj9EfxJEQ7uuNUUtOf_K-16" value="SESSION CACHE&lt;br&gt;Cookies Usadas: JSESSIONID + tokenltpa2" style="rounded=0;whiteSpace=wrap;html=1;strokeWidth=2;fillColor=#fff2cc;strokeColor=#d6b656;" parent="Cj9EfxJEQ7uuNUUtOf_K-1" vertex="1">
          <mxGeometry x="361" y="480" width="590" height="40" as="geometry" />
        </mxCell>
        <mxCell id="Cj9EfxJEQ7uuNUUtOf_K-20" value="User request" style="edgeStyle=orthogonalEdgeStyle;rounded=0;orthogonalLoop=1;jettySize=auto;html=1;exitX=0.67;exitY=1;exitDx=0;exitDy=0;exitPerimeter=0;entryX=0;entryY=0.5;entryDx=0;entryDy=0;endArrow=none;endFill=0;strokeWidth=2;fillColor=#d5e8d4;strokeColor=#82b366;" parent="Cj9EfxJEQ7uuNUUtOf_K-1" source="Cj9EfxJEQ7uuNUUtOf_K-19" target="Cj9EfxJEQ7uuNUUtOf_K-12" edge="1">
          <mxGeometry relative="1" as="geometry" />
        </mxCell>
        <mxCell id="Cj9EfxJEQ7uuNUUtOf_K-19" value="" style="points=[[0.35,0,0],[0.98,0.51,0],[1,0.71,0],[0.67,1,0],[0,0.795,0],[0,0.65,0]];verticalLabelPosition=bottom;sketch=0;html=1;verticalAlign=top;aspect=fixed;align=center;pointerEvents=1;shape=mxgraph.cisco19.user;fillColor=#005073;strokeColor=none;" parent="Cj9EfxJEQ7uuNUUtOf_K-1" vertex="1">
          <mxGeometry x="168" y="80" width="80" height="80" as="geometry" />
        </mxCell>
        <mxCell id="Cj9EfxJEQ7uuNUUtOf_K-22" value="protected&lt;br&gt;JSP Pages" style="rounded=1;whiteSpace=wrap;html=1;" parent="Cj9EfxJEQ7uuNUUtOf_K-1" vertex="1">
          <mxGeometry x="391.01" y="418" width="150" height="30" as="geometry" />
        </mxCell>
        <mxCell id="e1eXSrKv4xGoKaZF2_N9-4" value="DB2&lt;br&gt;DBLAB" style="strokeWidth=2;html=1;shape=mxgraph.flowchart.database;whiteSpace=wrap;" parent="Cj9EfxJEQ7uuNUUtOf_K-1" vertex="1">
          <mxGeometry x="558" y="610" width="80" height="80" as="geometry" />
        </mxCell>
        <mxCell id="e1eXSrKv4xGoKaZF2_N9-13" style="edgeStyle=orthogonalEdgeStyle;rounded=0;orthogonalLoop=1;jettySize=auto;html=1;exitX=0;exitY=0.25;exitDx=0;exitDy=0;entryX=0.75;entryY=1;entryDx=0;entryDy=0;dashed=1;endArrow=none;endFill=0;strokeWidth=2;fillColor=#fff2cc;strokeColor=#d6b656;" parent="Cj9EfxJEQ7uuNUUtOf_K-1" source="e1eXSrKv4xGoKaZF2_N9-10" target="Cj9EfxJEQ7uuNUUtOf_K-9" edge="1">
          <mxGeometry relative="1" as="geometry" />
        </mxCell>
        <mxCell id="e1eXSrKv4xGoKaZF2_N9-19" style="edgeStyle=orthogonalEdgeStyle;rounded=0;orthogonalLoop=1;jettySize=auto;html=1;exitX=1;exitY=0.75;exitDx=0;exitDy=0;entryX=1;entryY=0.5;entryDx=0;entryDy=0;entryPerimeter=0;endArrow=none;endFill=0;strokeWidth=2;fillColor=#dae8fc;strokeColor=#6c8ebf;" parent="Cj9EfxJEQ7uuNUUtOf_K-1" source="e1eXSrKv4xGoKaZF2_N9-10" target="e1eXSrKv4xGoKaZF2_N9-4" edge="1">
          <mxGeometry relative="1" as="geometry">
            <Array as="points">
              <mxPoint x="968" y="298" />
              <mxPoint x="968" y="580" />
              <mxPoint x="668" y="580" />
              <mxPoint x="668" y="650" />
            </Array>
          </mxGeometry>
        </mxCell>
        <mxCell id="e1eXSrKv4xGoKaZF2_N9-22" style="edgeStyle=orthogonalEdgeStyle;rounded=0;orthogonalLoop=1;jettySize=auto;html=1;exitX=1;exitY=0.25;exitDx=0;exitDy=0;entryX=1;entryY=0.5;entryDx=0;entryDy=0;entryPerimeter=0;endArrow=none;endFill=0;strokeWidth=2;fillColor=#e1d5e7;strokeColor=#9673a6;" parent="Cj9EfxJEQ7uuNUUtOf_K-1" source="e1eXSrKv4xGoKaZF2_N9-10" target="e1eXSrKv4xGoKaZF2_N9-21" edge="1">
          <mxGeometry relative="1" as="geometry">
            <Array as="points">
              <mxPoint x="988" y="283" />
              <mxPoint x="988" y="646" />
            </Array>
          </mxGeometry>
        </mxCell>
        <mxCell id="e1eXSrKv4xGoKaZF2_N9-10" value="MessageDrivenBean&lt;br&gt;@QueueMDB" style="rounded=1;whiteSpace=wrap;html=1;strokeWidth=2;fillColor=#CCCCFF;" parent="Cj9EfxJEQ7uuNUUtOf_K-1" vertex="1">
          <mxGeometry x="771" y="275" width="150" height="30" as="geometry" />
        </mxCell>
        <mxCell id="e1eXSrKv4xGoKaZF2_N9-16" style="edgeStyle=orthogonalEdgeStyle;rounded=0;orthogonalLoop=1;jettySize=auto;html=1;exitX=1;exitY=0.75;exitDx=0;exitDy=0;entryX=1;entryY=0.5;entryDx=0;entryDy=0;entryPerimeter=0;endArrow=none;endFill=0;strokeWidth=2;fillColor=#dae8fc;strokeColor=#6c8ebf;" parent="Cj9EfxJEQ7uuNUUtOf_K-1" source="e1eXSrKv4xGoKaZF2_N9-11" target="e1eXSrKv4xGoKaZF2_N9-4" edge="1">
          <mxGeometry relative="1" as="geometry">
            <Array as="points">
              <mxPoint x="968" y="348" />
              <mxPoint x="968" y="580" />
              <mxPoint x="668" y="580" />
              <mxPoint x="668" y="650" />
            </Array>
          </mxGeometry>
        </mxCell>
        <mxCell id="e1eXSrKv4xGoKaZF2_N9-17" style="edgeStyle=orthogonalEdgeStyle;rounded=0;orthogonalLoop=1;jettySize=auto;html=1;exitX=0;exitY=0.25;exitDx=0;exitDy=0;entryX=0.75;entryY=1;entryDx=0;entryDy=0;endArrow=none;endFill=0;strokeWidth=2;dashed=1;fillColor=#fff2cc;strokeColor=#d6b656;" parent="Cj9EfxJEQ7uuNUUtOf_K-1" source="e1eXSrKv4xGoKaZF2_N9-11" target="Cj9EfxJEQ7uuNUUtOf_K-9" edge="1">
          <mxGeometry relative="1" as="geometry" />
        </mxCell>
        <mxCell id="e1eXSrKv4xGoKaZF2_N9-23" style="edgeStyle=orthogonalEdgeStyle;rounded=0;orthogonalLoop=1;jettySize=auto;html=1;exitX=1;exitY=0.5;exitDx=0;exitDy=0;entryX=1;entryY=0.5;entryDx=0;entryDy=0;entryPerimeter=0;endArrow=none;endFill=0;strokeWidth=2;fillColor=#e1d5e7;strokeColor=#9673a6;" parent="Cj9EfxJEQ7uuNUUtOf_K-1" source="e1eXSrKv4xGoKaZF2_N9-12" target="e1eXSrKv4xGoKaZF2_N9-21" edge="1">
          <mxGeometry relative="1" as="geometry">
            <Array as="points">
              <mxPoint x="988" y="385" />
              <mxPoint x="988" y="646" />
            </Array>
          </mxGeometry>
        </mxCell>
        <mxCell id="e1eXSrKv4xGoKaZF2_N9-11" value="SessionBean&lt;br&gt;@DBFacade" style="rounded=1;whiteSpace=wrap;html=1;" parent="Cj9EfxJEQ7uuNUUtOf_K-1" vertex="1">
          <mxGeometry x="771" y="325" width="150" height="30" as="geometry" />
        </mxCell>
        <mxCell id="e1eXSrKv4xGoKaZF2_N9-21" value="DEV.QUEUE.1" style="outlineConnect=0;dashed=0;verticalLabelPosition=bottom;verticalAlign=top;align=center;html=1;shape=mxgraph.aws3.queue;fillColor=#D9A741;gradientColor=none;" parent="Cj9EfxJEQ7uuNUUtOf_K-1" vertex="1">
          <mxGeometry x="808" y="614.25" width="100" height="64" as="geometry" />
        </mxCell>
        <mxCell id="i9q5EOwxq1xMLSf2oKAz-1" value="Session Creation" style="edgeStyle=orthogonalEdgeStyle;rounded=0;orthogonalLoop=1;jettySize=auto;html=1;exitX=1;exitY=0.5;exitDx=0;exitDy=0;entryX=0.5;entryY=0;entryDx=0;entryDy=0;endArrow=none;endFill=0;strokeWidth=2;fillColor=#f8cecc;strokeColor=#b85450;fontSize=8;" edge="1" parent="Cj9EfxJEQ7uuNUUtOf_K-1" source="i9q5EOwxq1xMLSf2oKAz-0" target="Cj9EfxJEQ7uuNUUtOf_K-16">
          <mxGeometry x="-0.6194" y="-5" relative="1" as="geometry">
            <mxPoint as="offset" />
          </mxGeometry>
        </mxCell>
        <mxCell id="i9q5EOwxq1xMLSf2oKAz-0" value="LOGIN FORM AUTH&lt;br&gt;(Genera Token LTPA)" style="rounded=1;whiteSpace=wrap;html=1;" vertex="1" parent="Cj9EfxJEQ7uuNUUtOf_K-1">
          <mxGeometry x="391" y="270" width="150" height="30" as="geometry" />
        </mxCell>
      </root>
    </mxGraphModel>
  </diagram>
  <diagram id="UN43FTa9vjpGkxpU1P0C" name="Page-3">
    <mxGraphModel dx="1237" dy="690" grid="1" gridSize="10" guides="1" tooltips="1" connect="1" arrows="1" fold="1" page="1" pageScale="1" pageWidth="1169" pageHeight="827" math="0" shadow="0">
      <root>
        <mxCell id="J52rF1cFhzA3_dVWcbpn-0" />
        <mxCell id="J52rF1cFhzA3_dVWcbpn-1" parent="J52rF1cFhzA3_dVWcbpn-0" />
        <mxCell id="jgdbXaiXZGhM2MUUpTSE-19" value="PIHSP01" style="points=[[0,0],[0.25,0],[0.5,0],[0.75,0],[1,0],[1,0.25],[1,0.5],[1,0.75],[1,1],[0.75,1],[0.5,1],[0.25,1],[0,1],[0,0.75],[0,0.5],[0,0.25]];outlineConnect=0;gradientColor=none;html=1;whiteSpace=wrap;fontSize=12;fontStyle=1;shape=mxgraph.aws4.group;grIcon=mxgraph.aws4.group_on_premise;strokeColor=#5A6C86;fillColor=none;verticalAlign=top;align=left;spacingLeft=30;fontColor=#5A6C86;dashed=0;shadow=0;labelBackgroundColor=none;strokeWidth=2;" vertex="1" parent="J52rF1cFhzA3_dVWcbpn-1">
          <mxGeometry x="700" y="130" width="130" height="147.5" as="geometry" />
        </mxCell>
        <mxCell id="jgdbXaiXZGhM2MUUpTSE-14" value="Cluster" style="swimlane;shadow=0;labelBackgroundColor=none;fontColor=#000000;strokeWidth=1;fillColor=#9AC7BF;gradientColor=none;swimlaneFillColor=#FFFEFA;dashed=1;" vertex="1" parent="J52rF1cFhzA3_dVWcbpn-1">
          <mxGeometry x="460" y="60" width="130" height="510" as="geometry" />
        </mxCell>
        <mxCell id="jgdbXaiXZGhM2MUUpTSE-2" value="PWASP02" style="points=[[0,0],[0.25,0],[0.5,0],[0.75,0],[1,0],[1,0.25],[1,0.5],[1,0.75],[1,1],[0.75,1],[0.5,1],[0.25,1],[0,1],[0,0.75],[0,0.5],[0,0.25]];outlineConnect=0;gradientColor=none;html=1;whiteSpace=wrap;fontSize=12;fontStyle=1;shape=mxgraph.aws4.group;grIcon=mxgraph.aws4.group_on_premise;strokeColor=#5A6C86;fillColor=none;verticalAlign=top;align=left;spacingLeft=30;fontColor=#5A6C86;dashed=0;shadow=0;labelBackgroundColor=none;strokeWidth=2;" vertex="1" parent="J52rF1cFhzA3_dVWcbpn-1">
          <mxGeometry x="290" y="400" width="320" height="325" as="geometry" />
        </mxCell>
        <mxCell id="jgdbXaiXZGhM2MUUpTSE-1" value="PWASP01" style="points=[[0,0],[0.25,0],[0.5,0],[0.75,0],[1,0],[1,0.25],[1,0.5],[1,0.75],[1,1],[0.75,1],[0.5,1],[0.25,1],[0,1],[0,0.75],[0,0.5],[0,0.25]];outlineConnect=0;gradientColor=none;html=1;whiteSpace=wrap;fontSize=12;fontStyle=1;shape=mxgraph.aws4.group;grIcon=mxgraph.aws4.group_on_premise;strokeColor=#5A6C86;fillColor=none;verticalAlign=top;align=left;spacingLeft=30;fontColor=#5A6C86;dashed=0;shadow=0;labelBackgroundColor=none;strokeWidth=2;" vertex="1" parent="J52rF1cFhzA3_dVWcbpn-1">
          <mxGeometry x="290" y="45" width="320" height="325" as="geometry" />
        </mxCell>
        <mxCell id="jgdbXaiXZGhM2MUUpTSE-0" value="PNETP05" style="points=[[0,0],[0.25,0],[0.5,0],[0.75,0],[1,0],[1,0.25],[1,0.5],[1,0.75],[1,1],[0.75,1],[0.5,1],[0.25,1],[0,1],[0,0.75],[0,0.5],[0,0.25]];outlineConnect=0;gradientColor=none;html=1;whiteSpace=wrap;fontSize=12;fontStyle=1;shape=mxgraph.aws4.group;grIcon=mxgraph.aws4.group_on_premise;strokeColor=#5A6C86;fillColor=none;verticalAlign=top;align=left;spacingLeft=30;fontColor=#5A6C86;dashed=0;shadow=0;labelBackgroundColor=none;strokeWidth=2;" vertex="1" parent="J52rF1cFhzA3_dVWcbpn-1">
          <mxGeometry x="60" y="290" width="130" height="160" as="geometry" />
        </mxCell>
        <mxCell id="jgdbXaiXZGhM2MUUpTSE-6" style="edgeStyle=orthogonalEdgeStyle;rounded=0;orthogonalLoop=1;jettySize=auto;html=1;exitX=1.004;exitY=0.836;exitDx=0;exitDy=0;exitPerimeter=0;fontColor=#000000;endArrow=classic;endFill=1;strokeWidth=1;fillColor=#d5e8d4;strokeColor=#82b366;" edge="1" parent="J52rF1cFhzA3_dVWcbpn-1" source="J52rF1cFhzA3_dVWcbpn-3" target="jgdbXaiXZGhM2MUUpTSE-4">
          <mxGeometry relative="1" as="geometry">
            <Array as="points">
              <mxPoint x="240" y="387" />
              <mxPoint x="240" y="210" />
            </Array>
          </mxGeometry>
        </mxCell>
        <mxCell id="jgdbXaiXZGhM2MUUpTSE-7" style="edgeStyle=orthogonalEdgeStyle;rounded=0;orthogonalLoop=1;jettySize=auto;html=1;exitX=1;exitY=0.833;exitDx=0;exitDy=0;exitPerimeter=0;fontColor=#000000;endArrow=classic;endFill=1;strokeWidth=1;fillColor=#d5e8d4;strokeColor=#82b366;" edge="1" parent="J52rF1cFhzA3_dVWcbpn-1" source="J52rF1cFhzA3_dVWcbpn-3" target="jgdbXaiXZGhM2MUUpTSE-5">
          <mxGeometry relative="1" as="geometry">
            <Array as="points">
              <mxPoint x="240" y="387" />
              <mxPoint x="240" y="563" />
            </Array>
          </mxGeometry>
        </mxCell>
        <mxCell id="J52rF1cFhzA3_dVWcbpn-3" value="App Server&lt;br&gt;Deployment Manager" style="sketch=0;aspect=fixed;pointerEvents=1;shadow=0;dashed=0;html=1;strokeColor=none;labelPosition=center;verticalLabelPosition=bottom;verticalAlign=top;align=center;fillColor=#00188D;shape=mxgraph.mscae.enterprise.application_server;labelBackgroundColor=none;fontColor=#000000;" vertex="1" parent="J52rF1cFhzA3_dVWcbpn-1">
          <mxGeometry x="90" y="320" width="68.8" height="80" as="geometry" />
        </mxCell>
        <mxCell id="jgdbXaiXZGhM2MUUpTSE-9" style="edgeStyle=none;rounded=0;orthogonalLoop=1;jettySize=auto;html=1;entryX=0.554;entryY=0.386;entryDx=0;entryDy=0;entryPerimeter=0;fontColor=#000000;endArrow=none;endFill=0;strokeWidth=1;fillColor=#d5e8d4;strokeColor=#82b366;startArrow=classic;startFill=1;" edge="1" parent="J52rF1cFhzA3_dVWcbpn-1" source="J52rF1cFhzA3_dVWcbpn-5" target="jgdbXaiXZGhM2MUUpTSE-4">
          <mxGeometry relative="1" as="geometry" />
        </mxCell>
        <mxCell id="J52rF1cFhzA3_dVWcbpn-5" value="App Server&lt;br&gt;Server 1" style="sketch=0;pointerEvents=1;shadow=0;dashed=0;html=1;strokeColor=none;fillColor=#505050;labelPosition=center;verticalLabelPosition=bottom;verticalAlign=top;outlineConnect=0;align=center;shape=mxgraph.office.servers.application_server_blue;labelBackgroundColor=none;fontColor=#000000;" vertex="1" parent="J52rF1cFhzA3_dVWcbpn-1">
          <mxGeometry x="490" y="90" width="80" height="90" as="geometry" />
        </mxCell>
        <mxCell id="jgdbXaiXZGhM2MUUpTSE-10" style="edgeStyle=none;rounded=0;orthogonalLoop=1;jettySize=auto;html=1;entryX=1;entryY=0.75;entryDx=0;entryDy=0;entryPerimeter=0;fontColor=#000000;endArrow=none;endFill=0;strokeWidth=1;fillColor=#d5e8d4;strokeColor=#82b366;startArrow=classic;startFill=1;" edge="1" parent="J52rF1cFhzA3_dVWcbpn-1" source="J52rF1cFhzA3_dVWcbpn-6" target="jgdbXaiXZGhM2MUUpTSE-4">
          <mxGeometry relative="1" as="geometry" />
        </mxCell>
        <mxCell id="J52rF1cFhzA3_dVWcbpn-6" value="App Server&lt;br&gt;Server 2" style="sketch=0;pointerEvents=1;shadow=0;dashed=0;html=1;strokeColor=none;fillColor=#505050;labelPosition=center;verticalLabelPosition=bottom;verticalAlign=top;outlineConnect=0;align=center;shape=mxgraph.office.servers.application_server_blue;labelBackgroundColor=none;fontColor=#000000;" vertex="1" parent="J52rF1cFhzA3_dVWcbpn-1">
          <mxGeometry x="490" y="240" width="80" height="80" as="geometry" />
        </mxCell>
        <mxCell id="jgdbXaiXZGhM2MUUpTSE-11" style="rounded=0;orthogonalLoop=1;jettySize=auto;html=1;fontColor=#000000;endArrow=none;endFill=0;strokeWidth=1;entryX=0.577;entryY=0.365;entryDx=0;entryDy=0;entryPerimeter=0;fillColor=#d5e8d4;strokeColor=#82b366;startArrow=classic;startFill=1;" edge="1" parent="J52rF1cFhzA3_dVWcbpn-1" source="J52rF1cFhzA3_dVWcbpn-7" target="jgdbXaiXZGhM2MUUpTSE-5">
          <mxGeometry relative="1" as="geometry" />
        </mxCell>
        <mxCell id="J52rF1cFhzA3_dVWcbpn-7" value="App Server&lt;br&gt;Server 3" style="sketch=0;pointerEvents=1;shadow=0;dashed=0;html=1;strokeColor=none;fillColor=#505050;labelPosition=center;verticalLabelPosition=bottom;verticalAlign=top;outlineConnect=0;align=center;shape=mxgraph.office.servers.application_server_blue;labelBackgroundColor=none;fontColor=#000000;" vertex="1" parent="J52rF1cFhzA3_dVWcbpn-1">
          <mxGeometry x="490" y="440" width="80" height="80" as="geometry" />
        </mxCell>
        <mxCell id="jgdbXaiXZGhM2MUUpTSE-12" style="edgeStyle=none;rounded=0;orthogonalLoop=1;jettySize=auto;html=1;fontColor=#000000;endArrow=none;endFill=0;strokeWidth=1;fillColor=#d5e8d4;strokeColor=#82b366;startArrow=classic;startFill=1;" edge="1" parent="J52rF1cFhzA3_dVWcbpn-1" source="jgdbXaiXZGhM2MUUpTSE-3" target="jgdbXaiXZGhM2MUUpTSE-5">
          <mxGeometry relative="1" as="geometry" />
        </mxCell>
        <mxCell id="jgdbXaiXZGhM2MUUpTSE-3" value="App Server&lt;br&gt;Custom Server" style="sketch=0;pointerEvents=1;shadow=0;dashed=0;html=1;strokeColor=none;fillColor=#505050;labelPosition=center;verticalLabelPosition=bottom;verticalAlign=top;outlineConnect=0;align=center;shape=mxgraph.office.servers.application_server_green;labelBackgroundColor=none;fontColor=#000000;" vertex="1" parent="J52rF1cFhzA3_dVWcbpn-1">
          <mxGeometry x="490" y="600" width="80" height="80" as="geometry" />
        </mxCell>
        <mxCell id="jgdbXaiXZGhM2MUUpTSE-4" value="App Server&lt;br&gt;Node Agent" style="sketch=0;pointerEvents=1;shadow=0;dashed=0;html=1;strokeColor=none;fillColor=#505050;labelPosition=center;verticalLabelPosition=bottom;verticalAlign=top;outlineConnect=0;align=center;shape=mxgraph.office.security.trusted_application_server;labelBackgroundColor=none;fontColor=#000000;" vertex="1" parent="J52rF1cFhzA3_dVWcbpn-1">
          <mxGeometry x="330" y="170" width="70" height="80" as="geometry" />
        </mxCell>
        <mxCell id="jgdbXaiXZGhM2MUUpTSE-5" value="App Server&lt;br&gt;Node Agent" style="sketch=0;pointerEvents=1;shadow=0;dashed=0;html=1;strokeColor=none;fillColor=#505050;labelPosition=center;verticalLabelPosition=bottom;verticalAlign=top;outlineConnect=0;align=center;shape=mxgraph.office.security.trusted_application_server;labelBackgroundColor=none;fontColor=#000000;" vertex="1" parent="J52rF1cFhzA3_dVWcbpn-1">
          <mxGeometry x="330" y="522.5" width="70" height="80" as="geometry" />
        </mxCell>
        <mxCell id="jgdbXaiXZGhM2MUUpTSE-25" style="edgeStyle=orthogonalEdgeStyle;rounded=0;orthogonalLoop=1;jettySize=auto;html=1;fontColor=#000000;startArrow=classic;startFill=1;endArrow=classic;endFill=1;strokeWidth=1;fillColor=#f8cecc;strokeColor=#b85450;" edge="1" parent="J52rF1cFhzA3_dVWcbpn-1" source="jgdbXaiXZGhM2MUUpTSE-18" target="J52rF1cFhzA3_dVWcbpn-5">
          <mxGeometry relative="1" as="geometry" />
        </mxCell>
        <mxCell id="jgdbXaiXZGhM2MUUpTSE-26" style="edgeStyle=orthogonalEdgeStyle;rounded=0;orthogonalLoop=1;jettySize=auto;html=1;fontColor=#000000;startArrow=classic;startFill=1;endArrow=classic;endFill=1;strokeWidth=1;fillColor=#f8cecc;strokeColor=#b85450;" edge="1" parent="J52rF1cFhzA3_dVWcbpn-1" source="jgdbXaiXZGhM2MUUpTSE-18" target="J52rF1cFhzA3_dVWcbpn-6">
          <mxGeometry relative="1" as="geometry" />
        </mxCell>
        <mxCell id="jgdbXaiXZGhM2MUUpTSE-27" style="edgeStyle=orthogonalEdgeStyle;rounded=0;orthogonalLoop=1;jettySize=auto;html=1;fontColor=#000000;startArrow=classic;startFill=1;endArrow=classic;endFill=1;strokeWidth=1;fillColor=#f8cecc;strokeColor=#b85450;" edge="1" parent="J52rF1cFhzA3_dVWcbpn-1" source="jgdbXaiXZGhM2MUUpTSE-18" target="J52rF1cFhzA3_dVWcbpn-7">
          <mxGeometry relative="1" as="geometry">
            <Array as="points">
              <mxPoint x="650" y="204" />
              <mxPoint x="650" y="480" />
            </Array>
          </mxGeometry>
        </mxCell>
        <mxCell id="jgdbXaiXZGhM2MUUpTSE-28" style="edgeStyle=orthogonalEdgeStyle;rounded=0;orthogonalLoop=1;jettySize=auto;html=1;fontColor=#000000;startArrow=classic;startFill=1;endArrow=classic;endFill=1;strokeWidth=1;fillColor=#f8cecc;strokeColor=#b85450;" edge="1" parent="J52rF1cFhzA3_dVWcbpn-1" source="jgdbXaiXZGhM2MUUpTSE-18" target="jgdbXaiXZGhM2MUUpTSE-3">
          <mxGeometry relative="1" as="geometry">
            <Array as="points">
              <mxPoint x="650" y="204" />
              <mxPoint x="650" y="640" />
            </Array>
          </mxGeometry>
        </mxCell>
        <mxCell id="jgdbXaiXZGhM2MUUpTSE-18" value="IBM HTTP Server" style="sketch=0;pointerEvents=1;shadow=0;dashed=0;html=1;strokeColor=none;fillColor=#505050;labelPosition=center;verticalLabelPosition=bottom;verticalAlign=top;outlineConnect=0;align=center;shape=mxgraph.office.servers.web_server_blue;labelBackgroundColor=none;fontColor=#000000;" vertex="1" parent="J52rF1cFhzA3_dVWcbpn-1">
          <mxGeometry x="730" y="163.75" width="70" height="80" as="geometry" />
        </mxCell>
        <mxCell id="jgdbXaiXZGhM2MUUpTSE-20" value="PIHSP02" style="points=[[0,0],[0.25,0],[0.5,0],[0.75,0],[1,0],[1,0.25],[1,0.5],[1,0.75],[1,1],[0.75,1],[0.5,1],[0.25,1],[0,1],[0,0.75],[0,0.5],[0,0.25]];outlineConnect=0;gradientColor=none;html=1;whiteSpace=wrap;fontSize=12;fontStyle=1;shape=mxgraph.aws4.group;grIcon=mxgraph.aws4.group_on_premise;strokeColor=#5A6C86;fillColor=none;verticalAlign=top;align=left;spacingLeft=30;fontColor=#5A6C86;dashed=0;shadow=0;labelBackgroundColor=none;strokeWidth=2;" vertex="1" parent="J52rF1cFhzA3_dVWcbpn-1">
          <mxGeometry x="700" y="487.5" width="130" height="147.5" as="geometry" />
        </mxCell>
        <mxCell id="jgdbXaiXZGhM2MUUpTSE-29" style="edgeStyle=orthogonalEdgeStyle;rounded=0;orthogonalLoop=1;jettySize=auto;html=1;fontColor=#000000;startArrow=classic;startFill=1;endArrow=classic;endFill=1;strokeWidth=1;fillColor=#f8cecc;strokeColor=#b85450;" edge="1" parent="J52rF1cFhzA3_dVWcbpn-1" source="jgdbXaiXZGhM2MUUpTSE-21" target="J52rF1cFhzA3_dVWcbpn-7">
          <mxGeometry relative="1" as="geometry">
            <Array as="points">
              <mxPoint x="650" y="561" />
              <mxPoint x="650" y="480" />
            </Array>
          </mxGeometry>
        </mxCell>
        <mxCell id="jgdbXaiXZGhM2MUUpTSE-21" value="IBM HTTP Server" style="sketch=0;pointerEvents=1;shadow=0;dashed=0;html=1;strokeColor=none;fillColor=#505050;labelPosition=center;verticalLabelPosition=bottom;verticalAlign=top;outlineConnect=0;align=center;shape=mxgraph.office.servers.web_server_blue;labelBackgroundColor=none;fontColor=#000000;" vertex="1" parent="J52rF1cFhzA3_dVWcbpn-1">
          <mxGeometry x="730" y="521.25" width="70" height="80" as="geometry" />
        </mxCell>
        <mxCell id="jgdbXaiXZGhM2MUUpTSE-31" style="edgeStyle=orthogonalEdgeStyle;rounded=0;orthogonalLoop=1;jettySize=auto;html=1;fontColor=#000000;startArrow=classic;startFill=1;endArrow=classic;endFill=1;strokeWidth=1;fillColor=#f8cecc;strokeColor=#b85450;" edge="1" parent="J52rF1cFhzA3_dVWcbpn-1" source="jgdbXaiXZGhM2MUUpTSE-30" target="jgdbXaiXZGhM2MUUpTSE-18">
          <mxGeometry relative="1" as="geometry">
            <Array as="points">
              <mxPoint x="860" y="378" />
              <mxPoint x="860" y="204" />
            </Array>
          </mxGeometry>
        </mxCell>
        <mxCell id="jgdbXaiXZGhM2MUUpTSE-32" style="edgeStyle=orthogonalEdgeStyle;rounded=0;orthogonalLoop=1;jettySize=auto;html=1;fontColor=#000000;startArrow=classic;startFill=1;endArrow=classic;endFill=1;strokeWidth=1;fillColor=#f8cecc;strokeColor=#b85450;" edge="1" parent="J52rF1cFhzA3_dVWcbpn-1" source="jgdbXaiXZGhM2MUUpTSE-30" target="jgdbXaiXZGhM2MUUpTSE-21">
          <mxGeometry relative="1" as="geometry">
            <Array as="points">
              <mxPoint x="860" y="378" />
              <mxPoint x="860" y="561" />
            </Array>
          </mxGeometry>
        </mxCell>
        <mxCell id="jgdbXaiXZGhM2MUUpTSE-30" value="Balanceador" style="outlineConnect=0;dashed=0;verticalLabelPosition=bottom;verticalAlign=top;align=center;html=1;shape=mxgraph.aws3.classic_load_balancer;fillColor=#F58534;gradientColor=none;shadow=0;labelBackgroundColor=none;fontColor=#000000;strokeWidth=2;" vertex="1" parent="J52rF1cFhzA3_dVWcbpn-1">
          <mxGeometry x="910" y="342" width="69" height="72" as="geometry" />
        </mxCell>
        <mxCell id="jgdbXaiXZGhM2MUUpTSE-34" value="" style="edgeStyle=orthogonalEdgeStyle;rounded=0;orthogonalLoop=1;jettySize=auto;html=1;fontColor=#000000;startArrow=classic;startFill=1;endArrow=classic;endFill=1;strokeWidth=1;fillColor=#f8cecc;strokeColor=#b85450;" edge="1" parent="J52rF1cFhzA3_dVWcbpn-1" source="jgdbXaiXZGhM2MUUpTSE-33" target="jgdbXaiXZGhM2MUUpTSE-30">
          <mxGeometry relative="1" as="geometry" />
        </mxCell>
        <mxCell id="jgdbXaiXZGhM2MUUpTSE-33" value="Usuario" style="points=[[0.35,0,0],[0.98,0.51,0],[1,0.71,0],[0.67,1,0],[0,0.795,0],[0,0.65,0]];verticalLabelPosition=bottom;sketch=0;html=1;verticalAlign=top;aspect=fixed;align=center;pointerEvents=1;shape=mxgraph.cisco19.user;fillColor=#005073;strokeColor=none;shadow=0;dashed=1;labelBackgroundColor=none;fontColor=#000000;" vertex="1" parent="J52rF1cFhzA3_dVWcbpn-1">
          <mxGeometry x="1050" y="353" width="50" height="50" as="geometry" />
        </mxCell>
      </root>
    </mxGraphModel>
  </diagram>
</mxfile>
